<?xml version="1.0" encoding="UTF-8" standalone="no"?>
<!-- Created with Inkscape (http://www.inkscape.org/) -->

<svg
   xmlns:dc="http://purl.org/dc/elements/1.1/"
   xmlns:cc="http://creativecommons.org/ns#"
   xmlns:rdf="http://www.w3.org/1999/02/22-rdf-syntax-ns#"
   xmlns:svg="http://www.w3.org/2000/svg"
   xmlns="http://www.w3.org/2000/svg"
   xmlns:sodipodi="http://sodipodi.sourceforge.net/DTD/sodipodi-0.dtd"
   xmlns:inkscape="http://www.inkscape.org/namespaces/inkscape"
   width="210mm"
   height="297mm"
   id="svg2"
   version="1.1"
   inkscape:version="0.48.3.1 r9886"
   sodipodi:docname="logo.svg">
  <defs
     id="defs4" />
  <sodipodi:namedview
     id="base"
     pagecolor="#ffffff"
     bordercolor="#666666"
     borderopacity="1.0"
     inkscape:pageopacity="0.0"
     inkscape:pageshadow="2"
     inkscape:zoom="0.35"
     inkscape:cx="834.09268"
     inkscape:cy="977.8684"
     inkscape:document-units="px"
     inkscape:current-layer="layer1"
     showgrid="false"
     inkscape:window-width="889"
     inkscape:window-height="661"
     inkscape:window-x="88"
     inkscape:window-y="169"
     inkscape:window-maximized="0" />
  <metadata
     id="metadata7">
    <rdf:RDF>
      <cc:Work
         rdf:about="">
        <dc:format>image/svg+xml</dc:format>
        <dc:type
           rdf:resource="http://purl.org/dc/dcmitype/StillImage" />
        <dc:title></dc:title>
      </cc:Work>
    </rdf:RDF>
  </metadata>
  <g
     inkscape:label="Calque 1"
     inkscape:groupmode="layer"
     id="layer1">
    <rect
       style="fill:#e6e6e6;fill-opacity:1;fill-rule:nonzero;stroke:none;stroke-opacity:1"
       id="rect3765"
       width="440"
       height="280"
       x="102.85714"
       y="353.79074"
       inkscape:export-filename="E:\Taff\vs_440_280.png"
       inkscape:export-xdpi="90.000008"
       inkscape:export-ydpi="90.000008" />
    <rect
       style="fill:#9800ff;fill-opacity:1;fill-rule:nonzero;stroke:none"
       id="rect2985"
       width="150"
       height="150"
       x="117.08594"
       y="418.79074"
       rx="20"
       ry="20"
       inkscape:export-filename="E:\Taff\verbatim_search\icon-128.png"
       inkscape:export-xdpi="76.799973"
       inkscape:export-ydpi="76.799973" />
    <text
       xml:space="preserve"
       style="font-size:90.62097168px;font-style:normal;font-variant:normal;font-weight:normal;font-stretch:normal;text-align:start;line-height:125%;letter-spacing:0px;word-spacing:0px;writing-mode:lr-tb;text-anchor:start;fill:#ffffff;fill-opacity:1;stroke:none;font-family:OCR A Std;-inkscape-font-specification:OCR A Std"
       x="116.79306"
       y="523.96417"
       id="text3755"
       sodipodi:linespacing="125%"
       inkscape:export-filename="E:\Taff\verbatim_search\icon-128.png"
       inkscape:export-xdpi="76.799973"
       inkscape:export-ydpi="76.799973"><tspan
         sodipodi:role="line"
         id="tspan3757"
         x="116.79306"
         y="523.96417"
         style="letter-spacing:-22.65524292px;fill:#ffffff">´a´</tspan></text>
    <text
       xml:space="preserve"
       style="font-size:45.26952362px;font-style:normal;font-variant:normal;font-weight:normal;font-stretch:normal;text-align:center;line-height:125%;letter-spacing:0px;word-spacing:0px;text-anchor:middle;fill:#000000;fill-opacity:1;stroke:none;font-family:Zephyrean BRK;-inkscape-font-specification:Zephyrean BRK"
       x="405.11246"
       y="483.09064"
       id="text3759"
       sodipodi:linespacing="125%"><tspan
         sodipodi:role="line"
         id="tspan3761"
         x="405.11246"
         y="483.09064"
         style="font-style:normal;font-variant:normal;font-weight:normal;font-stretch:normal;text-align:center;text-anchor:middle;font-family:OCR A Std;-inkscape-font-specification:OCR A Std">verbatim</tspan><tspan
         sodipodi:role="line"
         x="405.11246"
         y="539.67755"
         style="font-style:normal;font-variant:normal;font-weight:normal;font-stretch:normal;text-align:center;text-anchor:middle;font-family:OCR A Std;-inkscape-font-specification:OCR A Std"
         id="tspan3763">search</tspan></text>
    <rect
       style="fill:#e7e7e7;fill-opacity:1;fill-rule:nonzero;stroke:none"
       id="rect3765-1"
       width="440"
       height="280"
       x="104.28571"
       y="29.505039"
       inkscape:export-filename="E:\Taff\Verbatim-search\media\vs_440_280.png"
       inkscape:export-xdpi="90.000008"
       inkscape:export-ydpi="90.000008" />
    <rect
       style="fill:#9800ff;fill-opacity:1;fill-rule:nonzero;stroke:none"
       id="rect2985-7"
       width="150"
       height="150"
       x="118.51451"
       y="60.505043"
       rx="20"
       ry="20"
       inkscape:export-filename="E:\Taff\verbatim_search\icon-128.png"
       inkscape:export-xdpi="76.799973"
       inkscape:export-ydpi="76.799973" />
    <g
       style="font-size:90.62097168px;font-style:normal;font-variant:normal;font-weight:normal;font-stretch:normal;text-align:start;line-height:125%;letter-spacing:0px;word-spacing:0px;writing-mode:lr-tb;text-anchor:start;fill:#ffffff;fill-opacity:1;stroke:none;font-family:OCR A Std;-inkscape-font-specification:OCR A Std"
       id="text3755-4"
       transform="translate(0,-34)">
      <path
         inkscape:connector-curvature="0"
         d="m 144.13889,139.14445 c -0.62681,0.37198 -1.07236,0.82886 -1.33664,1.37063 -0.26434,0.54189 -0.39271,1.11204 -0.38514,1.71045 0.0245,1.14413 0.40588,2.18625 1.14408,3.12638 0.73815,0.94023 1.68588,1.43864 2.8432,1.49523 0.54369,-0.0151 1.0874,-0.16609 1.63115,-0.4531 l 17.30838,-8.51826 c 0.62863,-0.32466 1.09306,-0.74001 1.39328,-1.24603 0.30013,-0.5059 0.47005,-1.05717 0.50974,-1.65381 0.0434,-1.39132 -0.40595,-2.68643 -1.34797,-3.88532 -0.94212,-1.19876 -2.09374,-1.83687 -3.45488,-1.91435 -0.32476,0.002 -0.64949,0.0435 -0.97416,0.12461 -0.32477,0.0812 -0.60418,0.19075 -0.83823,0.32849 z"
         style="letter-spacing:-22.65524292px;fill:#ffffff"
         id="path3026" />
      <path
         inkscape:connector-curvature="0"
         d="m 197.57822,159.53391 c 3.05649,-0.0906 5.12186,0.36252 6.19613,1.3593 1.07417,0.99685 1.57636,3.0811 1.50655,6.25276 l 0,1.99364 -18.66768,0 c -1.90115,-0.0283 -3.69467,0.18693 -5.38055,0.64566 -1.68593,0.4588 -3.27555,1.33101 -4.76887,2.61665 -1.60474,1.41219 -2.72238,2.86965 -3.35293,4.37241 -0.63057,1.5028 -0.93264,3.27743 -0.9062,5.32391 l 0,3.80603 c -0.0378,2.24096 0.2643,4.21572 0.9062,5.92427 0.64188,1.70857 1.85014,3.29819 3.62479,4.76887 1.55562,1.27812 3.11126,2.12013 4.66692,2.52603 1.55562,0.4059 3.2925,0.59091 5.21064,0.55504 l 8.33702,0 c 1.29885,0.0264 2.23526,-0.0264 2.80922,-0.15858 0.57389,-0.13216 1.41967,-0.50219 2.53735,-1.1101 l 5.98091,-3.08107 c 0.004,1.25169 0.44928,2.28249 1.33664,3.0924 0.88728,0.80992 1.92185,1.22903 3.10373,1.25735 1.4442,-0.0529 2.49766,-0.58148 3.16037,-1.58585 0.6626,-1.00436 0.96844,-2.16732 0.91752,-3.48886 l -0.9062,-29.54205 c 0.007,-2.12387 -0.23415,-3.97024 -0.72496,-5.53914 -0.4909,-1.56881 -1.54813,-3.16599 -3.17169,-4.79152 -1.69162,-1.66887 -3.4285,-2.74876 -5.21064,-3.23966 -1.78223,-0.49081 -3.79097,-0.70981 -6.02621,-0.65699 l -11.96182,0 c -1.5179,-0.0509 -2.8772,0.20961 -4.07789,0.7816 -1.20073,0.57208 -1.83507,1.76146 -1.90302,3.56815 0.0906,1.84642 0.77025,3.04713 2.03895,3.60214 1.26865,0.55508 2.58264,0.80429 3.94196,0.74761 z m 1.99363,18.3052 c 2.35796,-0.0396 3.98534,0.40215 4.88215,1.32532 0.89671,0.9232 1.32338,2.56569 1.28,4.92745 l 0,1.90301 -9.6057,4.98409 -9.6057,0 c -1.14599,0.034 -2.34292,-0.19256 -3.59081,-0.67965 -1.24793,-0.48707 -1.9238,-1.43858 -2.02762,-2.85452 l 0,-5.79967 c 0.0944,-1.54618 0.76648,-2.57698 2.01629,-3.0924 1.24978,-0.51538 2.5109,-0.75326 3.78338,-0.71363 z"
         style="letter-spacing:-22.65524292px;fill:#ffffff"
         id="path3028" />
      <path
         inkscape:connector-curvature="0"
         d="m 229.45003,139.14445 c -0.62681,0.37198 -1.07236,0.82886 -1.33664,1.37063 -0.26433,0.54189 -0.39271,1.11204 -0.38513,1.71045 0.0245,1.14413 0.40587,2.18625 1.14407,3.12638 0.73815,0.94023 1.68588,1.43864 2.8432,1.49523 0.54369,-0.0151 1.08741,-0.16609 1.63115,-0.4531 l 17.30839,-8.51826 c 0.62862,-0.32466 1.09305,-0.74001 1.39328,-1.24603 0.30013,-0.5059 0.47004,-1.05717 0.50973,-1.65381 0.0434,-1.39132 -0.40595,-2.68643 -1.34797,-3.88532 -0.94211,-1.19876 -2.09374,-1.83687 -3.45488,-1.91435 -0.32476,0.002 -0.64948,0.0435 -0.97416,0.12461 -0.32477,0.0812 -0.60418,0.19075 -0.83823,0.32849 z"
         style="letter-spacing:-22.65524292px;fill:#ffffff"
         id="path3030" />
    </g>
    <g
       style="font-size:45.26952362px;font-style:normal;font-variant:normal;font-weight:normal;font-stretch:normal;text-align:center;line-height:125%;letter-spacing:0px;word-spacing:0px;text-anchor:middle;fill:#000000;fill-opacity:1;stroke:none;font-family:Zephyrean BRK;-inkscape-font-specification:Zephyrean BRK"
       id="text3759-9"
       transform="translate(0,-34)">
      <path
         inkscape:connector-curvature="0"
         d="m 292.33429,154.27805 -6.29239,-14.44079 0,-2.21818 c 0.0292,-0.80727 -0.0971,-1.53535 -0.37912,-2.18423 -0.282,-0.64883 -0.89502,-0.99212 -1.83906,-1.02986 -0.76203,0.0217 -1.30903,0.2839 -1.641,0.78655 -0.33197,0.50269 -0.49419,1.11571 -0.48664,1.83905 l 0,3.07828 c 9.4e-4,0.34803 0.0443,0.64793 0.13015,0.89972 0.0858,0.25183 0.20842,0.54042 0.36781,0.86577 l 6.47346,14.21445 c 0.20464,0.50928 0.497,1.07514 0.87709,1.69759 0.38005,0.62244 0.84217,0.96196 1.38636,1.01855 l 2.80667,0 c 0.54415,-0.0566 1.00627,-0.39611 1.38636,-1.01855 0.38006,-0.62245 0.67242,-1.18831 0.87709,-1.69759 l 6.47346,-14.21445 c 0.15936,-0.32535 0.28196,-0.61394 0.36781,-0.86577 0.0858,-0.25179 0.12918,-0.55169 0.13015,-0.89972 l 0,-3.07828 c 0.008,-0.72334 -0.1547,-1.33636 -0.48664,-1.83906 -0.332,-0.50265 -0.879,-0.76483 -1.641,-0.78654 -0.94407,0.0377 -1.55709,0.38104 -1.83906,1.02987 -0.28201,0.64887 -0.40838,1.37695 -0.37912,2.18422 l 0,2.21818 z"
         style="font-family:OCR A Std;-inkscape-font-specification:OCR A Std"
         id="path3033" />
      <path
         inkscape:connector-curvature="0"
         d="m 332.61063,158.80495 c 0.67901,0.0283 1.3354,-0.0962 1.96919,-0.37347 0.63374,-0.27727 0.97326,-0.87709 1.01856,-1.79944 -0.034,-0.90255 -0.35086,-1.4967 -0.95065,-1.78247 -0.59984,-0.28575 -1.27887,-0.4159 -2.0371,-0.39044 l -9.32541,0 c -0.71771,0.006 -1.30809,-0.0509 -1.77114,-0.16976 -0.46308,-0.11883 -0.83843,-0.33385 -1.12607,-0.64508 l -1.08645,-1.17699 c -0.16506,-0.16599 -0.3103,-0.36592 -0.43572,-0.59982 -0.12544,-0.23388 -0.19146,-0.45645 -0.19805,-0.66772 l 0,-1.4486 13.94284,0 c 1.25335,0.0217 2.07385,-0.20276 2.46149,-0.67338 0.38759,-0.47059 0.56301,-1.3175 0.52626,-2.54072 l 0,-3.4857 c 0.0301,-1.18641 -0.0981,-2.23137 -0.38479,-3.13488 -0.28673,-0.90347 -0.91295,-1.74472 -1.87866,-2.52374 l -1.76549,-1.40334 c -0.79977,-0.66015 -1.54294,-1.09398 -2.2295,-1.30148 -0.68659,-0.20746 -1.54293,-0.30177 -2.56901,-0.28293 l -3.98366,0 c -0.84504,-0.0349 -1.61084,0.0462 -2.2974,0.24332 -0.68659,0.19713 -1.5203,0.71961 -2.50111,1.56744 l -1.53915,1.31279 c -0.88086,0.74602 -1.46181,1.51748 -1.74285,2.31438 -0.28105,0.79694 -0.40931,1.76079 -0.38479,2.89155 l 0,8.37476 c -0.0151,1.13739 0.13958,2.05408 0.46401,2.75009 0.32442,0.69601 0.90914,1.40899 1.75417,2.13895 l 1.85603,1.62968 c 0.64318,0.56398 1.23545,0.90727 1.7768,1.02987 0.54133,0.12261 1.24677,0.17165 2.11633,0.14713 z m -13.94284,-16.4779 c 0.004,-0.61205 0.0868,-1.05154 0.24898,-1.31846 0.1622,-0.26688 0.381,-0.49133 0.6564,-0.67337 l 1.49388,-1.08646 c 0.35836,-0.23858 0.71674,-0.38382 1.07513,-0.43571 0.35837,-0.0519 0.73938,-0.0726 1.14304,-0.0622 l 3.66679,0 c 0.34987,-0.008 0.71391,0.0198 1.09211,0.0849 0.37816,0.0651 0.70825,0.21787 0.99026,0.45834 l 1.67495,1.44861 c 0.28008,0.27163 0.44418,0.5772 0.4923,0.9167 0.0481,0.33953 0.065,0.713 0.0509,1.1204 l 0,2.6256 -12.58477,0 z"
         style="font-family:OCR A Std;-inkscape-font-specification:OCR A Std"
         id="path3035" />
      <path
         inkscape:connector-curvature="0"
         d="m 346.94786,155.8172 c -0.0255,0.77806 0.10468,1.46275 0.39045,2.05407 0.28575,0.59133 0.87991,0.90255 1.78246,0.93368 0.90254,-0.0311 1.4967,-0.34235 1.78247,-0.93368 0.28574,-0.59132 0.41589,-1.27601 0.39044,-2.05407 l 0,-11.00036 6.06604,-5.02485 c 0.37628,-0.32063 0.73277,-0.57339 1.06948,-0.75825 0.33667,-0.18483 0.70448,-0.27914 1.10343,-0.28293 l 1.26753,0 c 0.53095,-0.016 1.03079,0.0161 1.49953,0.0962 0.4687,0.0802 0.84406,0.30464 1.12607,0.67338 0.21689,0.31124 0.34892,0.61681 0.3961,0.91669 0.0471,0.29993 0.066,0.62813 0.0566,0.9846 -0.007,0.72527 0.16502,1.34583 0.51493,1.86169 0.34987,0.51589 0.91762,0.78562 1.70324,0.80918 0.90064,-0.033 1.48725,-0.35176 1.75983,-0.95631 0.27253,-0.60451 0.39514,-1.29675 0.36781,-2.07671 0.009,-0.98646 -0.13394,-1.87675 -0.43005,-2.67087 -0.29616,-0.79407 -0.80166,-1.54855 -1.51651,-2.26344 -0.58758,-0.58659 -1.23455,-1.02042 -1.94091,-1.30149 -0.7064,-0.28102 -1.47786,-0.42059 -2.31437,-0.41873 l -3.48571,0 c -0.67811,0.0151 -1.33639,0.19996 -1.97486,0.55454 -0.63849,0.35463 -1.26283,0.78846 -1.873,1.30148 l -3.39517,2.80668 0,-1.76549 c 0.017,-0.75446 -0.13016,-1.4184 -0.44137,-1.99183 -0.31123,-0.57339 -0.88841,-0.87518 -1.73154,-0.90538 -0.96197,0.0349 -1.5731,0.37255 -1.83339,1.01289 -0.2603,0.64039 -0.37348,1.37412 -0.33952,2.2012 z"
         style="font-family:OCR A Std;-inkscape-font-specification:OCR A Std"
         id="path3037" />
      <path
         inkscape:connector-curvature="0"
         d="m 383.91957,128.42949 c 0.0255,-0.77803 -0.10469,-1.46272 -0.39044,-2.05408 -0.28577,-0.59129 -0.87993,-0.90252 -1.78247,-0.93367 -0.90255,0.0312 -1.49671,0.34238 -1.78246,0.93367 -0.28577,0.59136 -0.41592,1.27605 -0.39045,2.05408 l 0,27.34244 c -0.0255,0.77995 0.10468,1.47218 0.39045,2.07671 0.28575,0.60453 0.87991,0.9233 1.78246,0.95631 0.84313,-0.033 1.42031,-0.34046 1.73154,-0.92236 0.31121,-0.58189 0.45834,-1.24018 0.44137,-1.97486 l 0,-0.27161 0.99592,0.95065 c 0.5998,0.58755 1.23357,1.09871 1.9013,1.53348 0.6677,0.43477 1.43727,0.66301 2.30871,0.6847 l 4.48163,0 c 0.55169,-0.0104 1.12321,-0.15939 1.71456,-0.44703 0.5913,-0.28765 1.1515,-0.65169 1.68061,-1.09212 l 1.49387,-1.26753 c 0.85066,-0.71864 1.45801,-1.45426 1.82208,-2.20686 0.36401,-0.75259 0.54131,-1.69192 0.53191,-2.81799 l 0,-8.73691 c 0.009,-1.12604 -0.1679,-2.06537 -0.53191,-2.81799 -0.36407,-0.75257 -0.97142,-1.48819 -1.82208,-2.20686 l -1.49387,-1.26753 c -0.53854,-0.46021 -1.06856,-0.82991 -1.59007,-1.10909 -0.52156,-0.27913 -1.0629,-0.42248 -1.62403,-0.43005 l -4.79851,0 c -0.96009,0.009 -1.74475,0.22825 -2.35398,0.6564 -0.60926,0.42819 -1.25811,1.00914 -1.94656,1.74285 l -0.76958,0.76957 z m 0,16.11574 c 0.009,-0.64507 0.13769,-1.16566 0.38479,-1.56178 0.24708,-0.39609 0.55642,-0.7356 0.92801,-1.01855 l 2.80668,-2.44452 c 0.25651,-0.2301 0.54698,-0.41495 0.87142,-0.55455 0.32442,-0.13956 0.63753,-0.21123 0.93933,-0.21502 l 3.03302,0 c 0.22444,9.6e-4 0.42061,0.033 0.5885,0.0962 0.16785,0.0632 0.31875,0.15186 0.45269,0.26596 l 1.99183,1.53914 c 0.18294,0.14054 0.32629,0.36877 0.43006,0.68469 0.10372,0.31596 0.15653,0.69132 0.15844,1.12607 l 0,7.69572 c 0.008,0.44704 -0.0198,0.88841 -0.0849,1.32412 -0.0651,0.43572 -0.21788,0.76392 -0.45835,0.9846 l -1.90129,1.58441 c -0.15564,0.13581 -0.34237,0.23766 -0.56021,0.30556 -0.21787,0.0679 -0.48383,0.10186 -0.79786,0.10186 l -3.30463,0 c -0.23391,-0.017 -0.50175,-0.14146 -0.80353,-0.37347 -0.30181,-0.232 -0.59228,-0.46966 -0.87143,-0.71299 l -2.48979,-2.12764 c -0.54984,-0.44891 -0.9101,-0.87519 -1.08079,-1.27884 -0.17072,-0.40364 -0.24805,-0.9431 -0.23201,-1.61837 z"
         style="font-family:OCR A Std;-inkscape-font-specification:OCR A Std"
         id="path3039" />
      <path
         inkscape:connector-curvature="0"
         d="m 424.87494,138.75081 c 1.52687,-0.0453 2.55862,0.18109 3.09527,0.67903 0.5366,0.49798 0.78747,1.53916 0.75259,3.12356 l 0,0.99591 -9.3254,0 c -0.94972,-0.0141 -1.84566,0.0934 -2.68784,0.32255 -0.8422,0.22918 -1.63629,0.6649 -2.38228,1.30714 -0.80164,0.70545 -1.35996,1.43352 -1.67495,2.18422 -0.315,0.75072 -0.4659,1.63724 -0.45269,2.65955 l 0,1.9013 c -0.0189,1.11947 0.13203,2.10595 0.45269,2.95945 0.32065,0.85352 0.92423,1.64761 1.81076,2.38228 0.7771,0.63848 1.55422,1.05911 2.33135,1.26187 0.7771,0.20277 1.64476,0.2952 2.60296,0.27728 l 4.16474,0 c 0.64884,0.0132 1.11662,-0.0132 1.40334,-0.0792 0.28669,-0.066 0.7092,-0.25087 1.26753,-0.55455 l 2.98775,-1.53914 c 0.002,0.62528 0.22444,1.14021 0.66772,1.5448 0.44323,0.40459 0.96005,0.61396 1.55046,0.62811 0.72145,-0.0264 1.2477,-0.29048 1.57875,-0.79221 0.33101,-0.50173 0.48379,-1.08268 0.45835,-1.74285 l -0.45269,-14.75768 c 0.004,-1.06097 -0.11697,-1.98332 -0.36215,-2.76706 -0.24523,-0.7837 -0.77337,-1.58156 -1.58441,-2.3936 -0.84505,-0.83368 -1.7127,-1.37313 -2.60297,-1.61836 -0.89031,-0.24519 -1.89377,-0.35458 -3.01038,-0.3282 l -5.9755,0 c -0.75827,-0.0254 -1.4373,0.10471 -2.0371,0.39044 -0.59983,0.28579 -0.91671,0.87994 -0.95065,1.78247 0.0453,0.92237 0.38477,1.52219 1.01855,1.79944 0.63375,0.27729 1.29015,0.40178 1.9692,0.37347 z m 0.99592,9.14432 c 1.17791,-0.0198 1.99087,0.20089 2.43886,0.66206 0.44796,0.46119 0.6611,1.28169 0.63943,2.4615 l 0,0.95065 -4.79851,2.48979 -4.79851,0 c -0.57247,0.017 -1.1704,-0.0962 -1.79378,-0.33952 -0.6234,-0.24332 -0.96103,-0.71864 -1.01289,-1.42597 l 0,-2.89721 c 0.0471,-0.77239 0.38289,-1.28733 1.00723,-1.54481 0.62432,-0.25745 1.25432,-0.37628 1.88998,-0.35649 z"
         style="font-family:OCR A Std;-inkscape-font-specification:OCR A Std"
         id="path3041" />
      <path
         inkscape:connector-curvature="0"
         d="m 453.56243,138.75081 7.2883,0 c 0.67901,0.0283 1.33541,-0.0962 1.9692,-0.37347 0.63374,-0.27726 0.97326,-0.87707 1.01855,-1.79944 -0.034,-0.90253 -0.35086,-1.49668 -0.95065,-1.78247 -0.59983,-0.28573 -1.27887,-0.41588 -2.0371,-0.39044 l -7.2883,0 0,-4.43636 c 0.0254,-0.77803 -0.1047,-1.46272 -0.39044,-2.05408 -0.28578,-0.59129 -0.87993,-0.90251 -1.78247,-0.93367 -0.90256,0.0312 -1.49671,0.34238 -1.78246,0.93367 -0.28577,0.59136 -0.41592,1.27605 -0.39045,2.05408 l 0,4.43636 -1.40333,0 c -0.75827,-0.0254 -1.4373,0.10471 -2.03711,0.39044 -0.59982,0.28579 -0.9167,0.87994 -0.95065,1.78247 0.0453,0.92237 0.38478,1.52219 1.01856,1.79944 0.63375,0.27729 1.29015,0.40178 1.9692,0.37347 l 1.40333,0 0,11.81519 c -0.0387,1.16663 0.016,2.23988 0.1641,3.21975 0.14806,0.97989 0.6215,1.92865 1.42032,2.84629 0.77144,0.82333 1.62778,1.39485 2.56901,1.71456 0.9412,0.31971 1.95598,0.47249 3.04433,0.45835 l 2.21818,0 c 1.16,0.0264 2.24645,-0.10563 3.25937,-0.39611 1.01286,-0.29047 1.91824,-0.89783 2.71613,-1.82207 0.3791,-0.4508 0.71862,-1.00912 1.01855,-1.67495 0.29988,-0.66583 0.45832,-1.31468 0.47533,-1.94657 -0.0161,-0.62527 -0.23298,-1.1402 -0.65074,-1.5448 -0.41782,-0.40458 -0.9403,-0.61395 -1.56744,-0.62811 -0.54891,0.008 -1.01292,0.1726 -1.39202,0.4923 -0.37915,0.31972 -0.63945,0.74412 -0.78089,1.27319 -0.21411,0.85163 -0.55551,1.3892 -1.02421,1.61271 -0.46874,0.22352 -1.13835,0.31971 -2.00881,0.28859 l -2.21818,0 c -1.42787,-0.008 -2.28421,-0.34329 -2.56901,-1.00724 -0.28483,-0.66393 -0.39423,-1.61081 -0.3282,-2.84062 z"
         style="font-family:OCR A Std;-inkscape-font-specification:OCR A Std"
         id="path3043" />
      <path
         inkscape:connector-curvature="0"
         d="m 490.35307,137.43801 c 0.0217,-1.25525 -0.20278,-2.08329 -0.67337,-2.48414 -0.47063,-0.40079 -1.31753,-0.58375 -2.54072,-0.54888 l -4.57216,0 c -0.75827,-0.0254 -1.4373,0.10471 -2.03711,0.39044 -0.59982,0.28579 -0.9167,0.87994 -0.95064,1.78247 0.0453,0.92237 0.38477,1.52219 1.01855,1.79944 0.63375,0.27729 1.29015,0.40178 1.9692,0.37347 l 3.44044,0 0,15.70832 -3.44044,0 c -0.75827,-0.0255 -1.4373,0.10469 -2.03711,0.39044 -0.59982,0.28577 -0.9167,0.87992 -0.95064,1.78247 0.0453,0.92235 0.38477,1.52217 1.01855,1.79944 0.63375,0.27727 1.29015,0.40176 1.9692,0.37347 l 11.04562,0 c 0.67901,0.0283 1.33541,-0.0962 1.9692,-0.37347 0.63374,-0.27727 0.97325,-0.87709 1.01855,-1.79944 -0.034,-0.90255 -0.35086,-1.4967 -0.95065,-1.78247 -0.59984,-0.28575 -1.27887,-0.4159 -2.0371,-0.39044 l -3.25937,0 z m -6.56399,-9.73283 c 0.0113,0.75829 0.2037,1.2902 0.57718,1.59573 0.37345,0.3056 0.86009,0.45272 1.45992,0.44138 l 2.48979,0 c 0.5998,0.0113 1.08644,-0.13578 1.45992,-0.44138 0.37345,-0.30553 0.56585,-0.83744 0.57718,-1.59573 l 0,-2.08237 c -0.0113,-0.75822 -0.20373,-1.29013 -0.57718,-1.59573 -0.37348,-0.30553 -0.86012,-0.45265 -1.45992,-0.44137 l -2.48979,0 c -0.59983,-0.0113 -1.08647,0.13584 -1.45993,0.44137 -0.37348,0.3056 -0.56587,0.83751 -0.57717,1.59573 z"
         style="font-family:OCR A Std;-inkscape-font-specification:OCR A Std"
         id="path3045" />
      <path
         inkscape:connector-curvature="0"
         d="m 523.7938,140.69737 c 0.19426,-0.24047 0.4621,-0.54038 0.80352,-0.89972 0.34139,-0.3593 0.67713,-0.55735 1.00724,-0.59415 0.55358,0.0481 0.86103,0.3367 0.92235,0.86576 0.0613,0.5291 0.0858,1.01009 0.0736,1.44295 l 0.45269,14.35026 c -2e-5,0.75637 0.1471,1.42785 0.44138,2.01446 0.29422,0.58661 0.8714,0.89595 1.73153,0.92802 0.94308,-0.0396 1.54667,-0.39045 1.81076,-1.05251 0.26404,-0.66205 0.36967,-1.39767 0.31688,-2.20686 l -0.45269,-15.02929 c 0.005,-0.82613 -0.0387,-1.58439 -0.13015,-2.27476 -0.0915,-0.69033 -0.39518,-1.38068 -0.91103,-2.07105 -0.43669,-0.56867 -0.96671,-1.00438 -1.59008,-1.30714 -0.62341,-0.30272 -1.30056,-0.4555 -2.03144,-0.45835 -0.9054,-0.009 -1.60707,0.12263 -2.105,0.3961 -0.49798,0.27353 -1.06384,0.74508 -1.69759,1.41466 l -0.36215,0.36215 c -0.49703,-0.68467 -1.0761,-1.21658 -1.7372,-1.59573 -0.66113,-0.37911 -1.40995,-0.5715 -2.24647,-0.57718 -0.72054,0.007 -1.31658,0.14054 -1.78812,0.40176 -0.47156,0.26126 -0.97707,0.61021 -1.51651,1.04684 l -0.36215,0.27162 c -0.13771,-0.50737 -0.38291,-0.91856 -0.73562,-1.23358 -0.35273,-0.31498 -0.80165,-0.47719 -1.34675,-0.48664 -0.90633,0.0321 -1.51558,0.35274 -1.82774,0.96196 -0.31217,0.60927 -0.45741,1.31471 -0.43571,2.11633 l 0,18.33392 c -0.0255,0.77806 0.10468,1.46275 0.39045,2.05407 0.28575,0.59133 0.8799,0.90255 1.78246,0.93368 0.90254,-0.0311 1.49669,-0.34235 1.78246,-0.93368 0.28575,-0.59132 0.4159,-1.27601 0.39045,-2.05407 l 0,-14.12391 1.90129,-1.76549 c 0.17635,-0.1688 0.35554,-0.32913 0.53757,-0.48098 0.18201,-0.15183 0.39515,-0.23293 0.63943,-0.24332 0.53849,0.0415 0.85349,0.29804 0.94499,0.76957 0.0915,0.47157 0.12353,0.90917 0.0962,1.3128 l 0,14.53133 c -0.0255,0.77806 0.10467,1.46275 0.39045,2.05407 0.28574,0.59133 0.8799,0.90255 1.78246,0.93368 0.90253,-0.0311 1.49669,-0.34235 1.78246,-0.93368 0.28575,-0.59132 0.41589,-1.27601 0.39045,-2.05407 l 0,-14.12391 z"
         style="font-family:OCR A Std;-inkscape-font-specification:OCR A Std"
         id="path3047" />
      <path
         inkscape:connector-curvature="0"
         d="m 328.35534,195.33771 c 0.58093,-0.0122 1.08266,0.0349 1.5052,0.14147 0.42248,0.10659 0.81104,0.34613 1.16567,0.71864 0.26405,0.29521 0.53943,0.51967 0.82616,0.67338 0.28668,0.15374 0.62997,0.23107 1.02987,0.232 0.60733,-0.0141 1.12415,-0.2235 1.55046,-0.62811 0.42625,-0.40457 0.64883,-0.9195 0.66772,-1.5448 -0.0208,-0.59413 -0.20563,-1.06946 -0.55455,-1.42597 -0.34897,-0.35647 -0.73753,-0.69599 -1.16567,-1.01855 -0.77243,-0.65638 -1.51371,-1.07512 -2.22384,-1.25622 -0.71018,-0.18105 -1.64385,-0.26027 -2.80102,-0.23766 l -7.4241,0 c -1.67496,0.0151 -3.0783,0.50553 -4.21001,1.47124 -1.13173,0.96576 -1.72023,2.31628 -1.76549,4.05157 0.008,1.38072 0.34234,2.47849 1.00157,3.29332 0.65922,0.81485 1.59289,1.48257 2.80102,2.00315 l 10.23078,4.6627 c 0.53,0.22352 1.03173,0.51211 1.50519,0.86577 0.47342,0.35367 0.72617,0.78938 0.75826,1.30714 -0.0547,1.20906 -0.46592,1.92582 -1.23358,2.15027 -0.76771,0.22447 -1.56369,0.30746 -2.38794,0.24898 l -5.88496,0 c -0.69131,0.0142 -1.34582,-0.0368 -1.96354,-0.15278 -0.61775,-0.116 -1.12513,-0.38195 -1.52217,-0.79786 -0.24522,-0.26973 -0.50174,-0.46589 -0.76957,-0.5885 -0.26785,-0.1226 -0.56964,-0.18296 -0.90538,-0.18108 -0.62906,0.0142 -1.15908,0.22353 -1.59007,0.62811 -0.43101,0.4046 -0.65547,0.91953 -0.67338,1.5448 0.0321,0.54135 0.26218,1.02044 0.69035,1.43729 0.42817,0.41686 0.86199,0.78278 1.30149,1.09777 0.79785,0.61113 1.62401,0.99592 2.47847,1.15436 0.85444,0.15844 1.83904,0.22635 2.9538,0.20371 l 6.6998,0 c 2.12007,0.005 3.83275,-0.52531 5.13803,-1.59007 1.30522,-1.06476 1.97671,-2.69256 2.01446,-4.88339 -0.002,-1.54385 -0.36029,-2.80195 -1.07513,-3.7743 -0.7149,-0.97232 -1.77495,-1.76642 -3.18015,-2.38227 l -10.86454,-4.93432 c -0.32633,-0.12636 -0.60171,-0.28103 -0.82616,-0.46401 -0.22447,-0.18294 -0.34142,-0.45078 -0.35083,-0.80352 0.0453,-0.66487 0.3395,-1.04399 0.88274,-1.13738 0.54321,-0.0934 1.06381,-0.12164 1.56178,-0.0849 z"
         style="font-family:OCR A Std;-inkscape-font-specification:OCR A Std"
         id="path3049" />
      <path
         inkscape:connector-curvature="0"
         d="m 365.23651,215.39185 c 0.67901,0.0283 1.33541,-0.0962 1.9692,-0.37347 0.63374,-0.27727 0.97326,-0.87708 1.01855,-1.79944 -0.034,-0.90254 -0.35086,-1.4967 -0.95064,-1.78246 -0.59984,-0.28576 -1.27888,-0.41591 -2.03711,-0.39045 l -9.3254,0 c -0.71771,0.006 -1.3081,-0.0509 -1.77115,-0.16976 -0.46307,-0.11882 -0.83843,-0.33385 -1.12606,-0.64508 l -1.08646,-1.17699 c -0.16505,-0.16598 -0.31029,-0.36592 -0.43571,-0.59982 -0.12544,-0.23388 -0.19146,-0.45645 -0.19805,-0.66771 l 0,-1.44861 13.94283,0 c 1.25336,0.0217 2.07386,-0.20275 2.4615,-0.67337 0.38759,-0.4706 0.56301,-1.31751 0.52625,-2.54072 l 0,-3.48571 c 0.0302,-1.18641 -0.0981,-2.23136 -0.38478,-3.13487 -0.28673,-0.90348 -0.91295,-1.74472 -1.87866,-2.52375 l -1.76549,-1.40333 c -0.79978,-0.66015 -1.54294,-1.09398 -2.2295,-1.30149 -0.6866,-0.20746 -1.54293,-0.30177 -2.56901,-0.28293 l -3.98367,0 c -0.84503,-0.0349 -1.61083,0.0462 -2.2974,0.24332 -0.68659,0.19713 -1.52029,0.71961 -2.50111,1.56744 l -1.53914,1.3128 c -0.88086,0.74601 -1.46181,1.51747 -1.74285,2.31437 -0.28106,0.79694 -0.40932,1.76079 -0.38479,2.89156 l 0,8.37475 c -0.0151,1.13739 0.13957,2.05409 0.46401,2.75009 0.32442,0.69601 0.90914,1.409 1.75417,2.13896 l 1.85603,1.62968 c 0.64318,0.56397 1.23545,0.90726 1.7768,1.02987 0.54133,0.1226 1.24677,0.17164 2.11632,0.14712 z m -13.94283,-16.47789 c 0.004,-0.61206 0.0867,-1.05155 0.24898,-1.31846 0.1622,-0.26688 0.381,-0.49134 0.6564,-0.67338 l 1.49387,-1.08645 c 0.35837,-0.23859 0.71675,-0.38382 1.07514,-0.43572 0.35837,-0.0519 0.73938,-0.0726 1.14304,-0.0622 l 3.66679,0 c 0.34987,-0.008 0.71391,0.0198 1.09211,0.0849 0.37816,0.0651 0.70825,0.21788 0.99026,0.45835 l 1.67495,1.4486 c 0.28008,0.27164 0.44418,0.5772 0.4923,0.9167 0.0481,0.33953 0.065,0.713 0.0509,1.12041 l 0,2.62559 -12.58476,0 z"
         style="font-family:OCR A Std;-inkscape-font-specification:OCR A Std"
         id="path3051" />
      <path
         inkscape:connector-curvature="0"
         d="m 392.24905,195.33771 c 1.52687,-0.0452 2.55862,0.1811 3.09527,0.67903 0.5366,0.49798 0.78746,1.53917 0.75259,3.12356 l 0,0.99592 -9.3254,0 c -0.94972,-0.0141 -1.84566,0.0934 -2.68784,0.32254 -0.8422,0.22919 -1.6363,0.6649 -2.38228,1.30714 -0.80164,0.70545 -1.35996,1.43353 -1.67495,2.18423 -0.315,0.75072 -0.4659,1.63723 -0.45269,2.65955 l 0,1.90129 c -0.0189,1.11947 0.13203,2.10596 0.45269,2.95946 0.32065,0.85351 0.92423,1.6476 1.81076,2.38228 0.7771,0.63848 1.55422,1.0591 2.33135,1.26187 0.7771,0.20277 1.64476,0.29519 2.60296,0.27727 l 4.16474,0 c 0.64884,0.0132 1.11662,-0.0132 1.40334,-0.0792 0.28669,-0.066 0.7092,-0.25086 1.26753,-0.55454 l 2.98775,-1.53915 c 0.002,0.62528 0.22444,1.14021 0.66772,1.5448 0.44323,0.4046 0.96005,0.61396 1.55046,0.62811 0.72145,-0.0264 1.2477,-0.29047 1.57875,-0.79221 0.33101,-0.50173 0.48379,-1.08268 0.45835,-1.74285 l -0.45269,-14.75767 c 0.004,-1.06098 -0.11697,-1.98333 -0.36215,-2.76707 -0.24523,-0.7837 -0.77337,-1.58156 -1.58441,-2.39359 -0.84505,-0.83368 -1.7127,-1.37314 -2.60297,-1.61837 -0.89031,-0.24518 -1.89377,-0.35458 -3.01038,-0.3282 l -5.9755,0 c -0.75827,-0.0254 -1.4373,0.10471 -2.0371,0.39045 -0.59983,0.28578 -0.91671,0.87994 -0.95065,1.78246 0.0453,0.92238 0.38477,1.52219 1.01855,1.79944 0.63375,0.27729 1.29015,0.40178 1.9692,0.37347 z m 0.99592,9.14433 c 1.17791,-0.0198 1.99087,0.20089 2.43886,0.66206 0.44796,0.46118 0.6611,1.28168 0.63943,2.46149 l 0,0.95065 -4.79851,2.48979 -4.79851,0 c -0.57247,0.017 -1.1704,-0.0962 -1.79378,-0.33951 -0.6234,-0.24332 -0.96103,-0.71864 -1.01289,-1.42598 l 0,-2.89721 c 0.0471,-0.77239 0.38289,-1.28732 1.00723,-1.5448 0.62432,-0.25746 1.25432,-0.37629 1.88998,-0.35649 z"
         style="font-family:OCR A Std;-inkscape-font-specification:OCR A Std"
         id="path3053" />
      <path
         inkscape:connector-curvature="0"
         d="m 412.19964,212.4041 c -0.0255,0.77806 0.10468,1.46275 0.39045,2.05408 0.28575,0.59132 0.87991,0.90255 1.78246,0.93367 0.90254,-0.0311 1.4967,-0.34234 1.78246,-0.93367 0.28575,-0.59133 0.4159,-1.27602 0.39045,-2.05408 l 0,-11.00035 6.06604,-5.02485 c 0.37628,-0.32064 0.73277,-0.57339 1.06948,-0.75826 0.33667,-0.18483 0.70448,-0.27914 1.10343,-0.28293 l 1.26753,0 c 0.53095,-0.016 1.03079,0.0161 1.49953,0.0962 0.4687,0.0802 0.84406,0.30464 1.12607,0.67337 0.21689,0.31125 0.34892,0.61681 0.3961,0.9167 0.0471,0.29992 0.066,0.62812 0.0566,0.9846 -0.007,0.72526 0.16502,1.34582 0.51493,1.86168 0.34987,0.51589 0.91761,0.78562 1.70324,0.80919 0.90064,-0.033 1.48725,-0.35177 1.75983,-0.95631 0.27253,-0.60451 0.39514,-1.29675 0.36781,-2.07671 0.009,-0.98647 -0.13394,-1.87676 -0.43005,-2.67087 -0.29616,-0.79407 -0.80167,-1.54855 -1.51651,-2.26345 -0.58758,-0.58658 -1.23455,-1.02041 -1.94091,-1.30148 -0.7064,-0.28102 -1.47786,-0.4206 -2.31437,-0.41874 l -3.48571,0 c -0.67811,0.0151 -1.33639,0.19996 -1.97486,0.55455 -0.63849,0.35463 -1.26283,0.78845 -1.873,1.30148 l -3.39517,2.80667 0,-1.76549 c 0.017,-0.75446 -0.13016,-1.4184 -0.44137,-1.99183 -0.31123,-0.57338 -0.88841,-0.87517 -1.73154,-0.90538 -0.96197,0.0349 -1.5731,0.37255 -1.83339,1.01289 -0.2603,0.64039 -0.37348,1.37413 -0.33952,2.20121 z"
         style="font-family:OCR A Std;-inkscape-font-specification:OCR A Std"
         id="path3055" />
      <path
         inkscape:connector-curvature="0"
         d="m 444.82553,205.29688 c -0.0226,1.29866 0.14712,2.36814 0.50927,3.20843 0.36215,0.84031 1.0525,1.67213 2.07106,2.49545 l 3.21409,2.67087 c 0.96667,0.80447 1.83998,1.30054 2.61994,1.48822 0.77993,0.18767 1.77773,0.26501 2.99341,0.232 l 6.88088,0 c 0.75823,0.0255 1.43726,-0.10468 2.0371,-0.39044 0.59979,-0.28576 0.91667,-0.87992 0.95065,-1.78247 -0.0453,-0.92235 -0.38481,-1.52216 -1.01855,-1.79944 -0.63379,-0.27727 -1.29019,-0.40176 -1.9692,-0.37347 l -7.65045,0 c -0.43196,-0.006 -0.85824,-0.10751 -1.27885,-0.30556 -0.42064,-0.19805 -0.82429,-0.45835 -1.21094,-0.78089 l -2.6256,-2.21818 c -0.34613,-0.26123 -0.62718,-0.53096 -0.84314,-0.80918 -0.21598,-0.27821 -0.32726,-0.62716 -0.33385,-1.04685 l 0,-5.387 c 0.007,-0.41967 0.11787,-0.76861 0.33385,-1.04684 0.21596,-0.2782 0.49701,-0.54793 0.84314,-0.80919 l 2.6256,-2.21817 c 0.38665,-0.32253 0.7903,-0.58282 1.21094,-0.7809 0.42061,-0.19803 0.84689,-0.29988 1.27885,-0.30556 l 7.65045,0 c 0.67901,0.0283 1.33541,-0.0962 1.9692,-0.37347 0.63374,-0.27725 0.97325,-0.87706 1.01855,-1.79944 -0.034,-0.90253 -0.35086,-1.49668 -0.95065,-1.78246 -0.59984,-0.28574 -1.27887,-0.41589 -2.0371,-0.39045 l -6.88088,0 c -1.21568,-0.033 -2.21348,0.0443 -2.99341,0.23201 -0.77996,0.1877 -1.65327,0.68377 -2.61994,1.48821 l -3.21409,2.67087 c -1.01856,0.82335 -1.70891,1.65516 -2.07106,2.49545 -0.36216,0.84032 -0.53191,1.9098 -0.50927,3.20844 z"
         style="font-family:OCR A Std;-inkscape-font-specification:OCR A Std"
         id="path3057" />
      <path
         inkscape:connector-curvature="0"
         d="m 491.57532,195.33771 c 1.16377,0.0245 1.85789,0.38292 2.08237,1.07514 0.22444,0.69225 0.33007,1.57123 0.31689,2.63691 l 0.45268,13.39961 c -2e-5,0.75637 0.14711,1.42786 0.44138,2.01447 0.29422,0.58661 0.8714,0.89595 1.73153,0.92801 0.94308,-0.0396 1.54667,-0.39044 1.81076,-1.0525 0.26404,-0.66206 0.36967,-1.39768 0.31688,-2.20686 l -0.45269,-13.67122 c 9.2e-4,-1.17038 -0.0915,-2.23608 -0.27727,-3.19712 -0.18582,-0.961 -0.74225,-1.85695 -1.66929,-2.68784 -0.91389,-0.75918 -1.73439,-1.2213 -2.4615,-1.38637 -0.72715,-0.16502 -1.30999,-0.23103 -1.74851,-0.19805 l -2.89721,0 c -0.72527,0.0151 -1.41373,0.16601 -2.0654,0.45269 -0.6517,0.28673 -1.26094,0.6187 -1.82773,0.99592 l -3.53098,2.30871 0,-9.73282 c 0.0254,-0.77803 -0.10469,-1.46272 -0.39044,-2.05408 -0.28577,-0.59129 -0.87993,-0.90251 -1.78247,-0.93367 -0.90256,0.0312 -1.49671,0.34238 -1.78246,0.93367 -0.28577,0.59136 -0.41592,1.27605 -0.39045,2.05408 l 0,27.38771 c -0.0255,0.77806 0.10468,1.46275 0.39045,2.05408 0.28575,0.59132 0.87991,0.90255 1.78246,0.93367 0.90254,-0.0311 1.4967,-0.34234 1.78246,-0.93367 0.28575,-0.59133 0.4159,-1.27602 0.39045,-2.05408 l 0,-12.63003 6.42819,-4.02894 c 0.45267,-0.27159 0.90536,-0.4074 1.35807,-0.40742 z"
         style="font-family:OCR A Std;-inkscape-font-specification:OCR A Std"
         id="path3059" />
    </g>
    <rect
       style="fill:#9800ff;fill-opacity:1;fill-rule:nonzero;stroke:none"
       id="rect2985-8"
       width="150"
       height="150"
       x="105.81729"
       y="726.84436"
       rx="20"
       ry="20"
       inkscape:export-filename="E:\Taff\verbatim_search\icon-128.png"
       inkscape:export-xdpi="76.799973"
       inkscape:export-ydpi="76.799973" />
    <text
       xml:space="preserve"
       style="font-size:117.19854736px;font-style:normal;font-variant:normal;font-weight:normal;font-stretch:normal;text-align:start;line-height:125%;letter-spacing:0px;word-spacing:0px;writing-mode:lr-tb;text-anchor:start;fill:#ffffff;fill-opacity:1;stroke:none;font-family:OCR A Std;-inkscape-font-specification:OCR A Std"
       x="78.26918"
       y="840.34845"
       id="text3755-2"
       sodipodi:linespacing="125%"
       inkscape:export-filename="E:\Taff\verbatim_search\icon-128.png"
       inkscape:export-xdpi="76.799973"
       inkscape:export-ydpi="76.799973"><tspan
         sodipodi:role="line"
         id="tspan3757-4"
         x="78.26918"
         y="840.34845"
         style="letter-spacing:-29.29963684px;fill:#ffffff">´a´</tspan></text>
    <rect
       style="fill:none;stroke:#9800ff;stroke-width:5;stroke-miterlimit:4;stroke-opacity:1;stroke-dasharray:none"
       id="rect2985-8-2"
       width="150"
       height="150"
       x="334.11179"
       y="716.7428"
       rx="20"
       ry="20"
       inkscape:export-filename="E:\Taff\Verbatim-search\media\icon-b-19.png"
       inkscape:export-xdpi="11.032258"
       inkscape:export-ydpi="11.032258" />
    <text
       xml:space="preserve"
       style="font-size:117.19854736px;font-style:normal;font-variant:normal;font-weight:normal;font-stretch:normal;text-align:start;line-height:125%;letter-spacing:0px;word-spacing:0px;writing-mode:lr-tb;text-anchor:start;fill:#9800ff;fill-opacity:1;stroke:none;font-family:OCR A Std;-inkscape-font-specification:OCR A Std"
       x="306.56366"
       y="830.24689"
       id="text3755-2-7"
       sodipodi:linespacing="125%"
       inkscape:export-filename="E:\Taff\Verbatim-search\media\icon-b-19.png"
       inkscape:export-xdpi="11.032258"
       inkscape:export-ydpi="11.032258"><tspan
         sodipodi:role="line"
         id="tspan3757-4-6"
         x="306.56366"
         y="830.24689"
         style="letter-spacing:-29.29963684px;fill:#9800ff;fill-opacity:1">´a´</tspan></text>
    <rect
       style="fill:#e3e3e3;fill-opacity:1;fill-rule:nonzero;stroke:none"
       id="rect3765-1-8"
       width="920"
       height="680"
       x="805.71429"
       y="-50.81963"
       inkscape:export-filename="E:\Taff\Verbatim-search\media\vs_920_680.png"
       inkscape:export-xdpi="90.000008"
       inkscape:export-ydpi="90.000008" />
    <rect
       style="fill:#9800ff;fill-opacity:1;fill-rule:nonzero;stroke:none"
       id="rect2985-7-3"
       width="311.68832"
       height="311.68832"
       x="838.13776"
       y="49.141418"
       rx="41.558441"
       ry="41.558441"
       inkscape:export-filename="E:\Taff\verbatim_search\icon-128.png"
       inkscape:export-xdpi="76.799973"
       inkscape:export-ydpi="76.799973" />
    <g
       style="font-size:90.62097168px;font-style:normal;font-variant:normal;font-weight:normal;font-stretch:normal;text-align:start;line-height:125%;letter-spacing:0px;word-spacing:0px;writing-mode:lr-tb;text-anchor:start;fill:#ffffff;fill-opacity:1;stroke:none;font-family:OCR A Std;-inkscape-font-specification:OCR A Std"
       id="text3755-4-4"
       transform="matrix(2.0779221,0,0,2.0779221,591.87385,-147.2327)">
      <path
         d="m 144.13889,139.14445 c -0.62681,0.37198 -1.07236,0.82886 -1.33664,1.37063 -0.26434,0.54189 -0.39271,1.11204 -0.38514,1.71045 0.0245,1.14413 0.40588,2.18625 1.14408,3.12638 0.73815,0.94023 1.68588,1.43864 2.8432,1.49523 0.54369,-0.0151 1.0874,-0.16609 1.63115,-0.4531 l 17.30838,-8.51826 c 0.62863,-0.32466 1.09306,-0.74001 1.39328,-1.24603 0.30013,-0.5059 0.47005,-1.05717 0.50974,-1.65381 0.0434,-1.39132 -0.40595,-2.68643 -1.34797,-3.88532 -0.94212,-1.19876 -2.09374,-1.83687 -3.45488,-1.91435 -0.32476,0.002 -0.64949,0.0435 -0.97416,0.12461 -0.32477,0.0812 -0.60418,0.19075 -0.83823,0.32849 z"
         style="letter-spacing:-22.65524292px;fill:#ffffff"
         id="path3026-8"
         inkscape:connector-curvature="0" />
      <path
         d="m 197.57822,159.53391 c 3.05649,-0.0906 5.12186,0.36252 6.19613,1.3593 1.07417,0.99685 1.57636,3.0811 1.50655,6.25276 l 0,1.99364 -18.66768,0 c -1.90115,-0.0283 -3.69467,0.18693 -5.38055,0.64566 -1.68593,0.4588 -3.27555,1.33101 -4.76887,2.61665 -1.60474,1.41219 -2.72238,2.86965 -3.35293,4.37241 -0.63057,1.5028 -0.93264,3.27743 -0.9062,5.32391 l 0,3.80603 c -0.0378,2.24096 0.2643,4.21572 0.9062,5.92427 0.64188,1.70857 1.85014,3.29819 3.62479,4.76887 1.55562,1.27812 3.11126,2.12013 4.66692,2.52603 1.55562,0.4059 3.2925,0.59091 5.21064,0.55504 l 8.33702,0 c 1.29885,0.0264 2.23526,-0.0264 2.80922,-0.15858 0.57389,-0.13216 1.41967,-0.50219 2.53735,-1.1101 l 5.98091,-3.08107 c 0.004,1.25169 0.44928,2.28249 1.33664,3.0924 0.88728,0.80992 1.92185,1.22903 3.10373,1.25735 1.4442,-0.0529 2.49766,-0.58148 3.16037,-1.58585 0.6626,-1.00436 0.96844,-2.16732 0.91752,-3.48886 l -0.9062,-29.54205 c 0.007,-2.12387 -0.23415,-3.97024 -0.72496,-5.53914 -0.4909,-1.56881 -1.54813,-3.16599 -3.17169,-4.79152 -1.69162,-1.66887 -3.4285,-2.74876 -5.21064,-3.23966 -1.78223,-0.49081 -3.79097,-0.70981 -6.02621,-0.65699 l -11.96182,0 c -1.5179,-0.0509 -2.8772,0.20961 -4.07789,0.7816 -1.20073,0.57208 -1.83507,1.76146 -1.90302,3.56815 0.0906,1.84642 0.77025,3.04713 2.03895,3.60214 1.26865,0.55508 2.58264,0.80429 3.94196,0.74761 z m 1.99363,18.3052 c 2.35796,-0.0396 3.98534,0.40215 4.88215,1.32532 0.89671,0.9232 1.32338,2.56569 1.28,4.92745 l 0,1.90301 -9.6057,4.98409 -9.6057,0 c -1.14599,0.034 -2.34292,-0.19256 -3.59081,-0.67965 -1.24793,-0.48707 -1.9238,-1.43858 -2.02762,-2.85452 l 0,-5.79967 c 0.0944,-1.54618 0.76648,-2.57698 2.01629,-3.0924 1.24978,-0.51538 2.5109,-0.75326 3.78338,-0.71363 z"
         style="letter-spacing:-22.65524292px;fill:#ffffff"
         id="path3028-4"
         inkscape:connector-curvature="0" />
      <path
         d="m 229.45003,139.14445 c -0.62681,0.37198 -1.07236,0.82886 -1.33664,1.37063 -0.26433,0.54189 -0.39271,1.11204 -0.38513,1.71045 0.0245,1.14413 0.40587,2.18625 1.14407,3.12638 0.73815,0.94023 1.68588,1.43864 2.8432,1.49523 0.54369,-0.0151 1.08741,-0.16609 1.63115,-0.4531 l 17.30839,-8.51826 c 0.62862,-0.32466 1.09305,-0.74001 1.39328,-1.24603 0.30013,-0.5059 0.47004,-1.05717 0.50973,-1.65381 0.0434,-1.39132 -0.40595,-2.68643 -1.34797,-3.88532 -0.94211,-1.19876 -2.09374,-1.83687 -3.45488,-1.91435 -0.32476,0.002 -0.64948,0.0435 -0.97416,0.12461 -0.32477,0.0812 -0.60418,0.19075 -0.83823,0.32849 z"
         style="letter-spacing:-22.65524292px;fill:#ffffff"
         id="path3030-9"
         inkscape:connector-curvature="0" />
    </g>
    <g
       style="font-size:45.26952362px;font-style:normal;font-variant:normal;font-weight:normal;font-stretch:normal;text-align:center;line-height:125%;letter-spacing:0px;word-spacing:0px;text-anchor:middle;fill:#000000;fill-opacity:1;stroke:none;font-family:Zephyrean BRK;-inkscape-font-specification:Zephyrean BRK"
       id="text3759-9-9"
       transform="matrix(2.0779221,0,0,2.0779221,591.87385,-147.2327)">
      <path
         d="m 292.33429,154.27805 -6.29239,-14.44079 0,-2.21818 c 0.0292,-0.80727 -0.0971,-1.53535 -0.37912,-2.18423 -0.282,-0.64883 -0.89502,-0.99212 -1.83906,-1.02986 -0.76203,0.0217 -1.30903,0.2839 -1.641,0.78655 -0.33197,0.50269 -0.49419,1.11571 -0.48664,1.83905 l 0,3.07828 c 9.4e-4,0.34803 0.0443,0.64793 0.13015,0.89972 0.0858,0.25183 0.20842,0.54042 0.36781,0.86577 l 6.47346,14.21445 c 0.20464,0.50928 0.497,1.07514 0.87709,1.69759 0.38005,0.62244 0.84217,0.96196 1.38636,1.01855 l 2.80667,0 c 0.54415,-0.0566 1.00627,-0.39611 1.38636,-1.01855 0.38006,-0.62245 0.67242,-1.18831 0.87709,-1.69759 l 6.47346,-14.21445 c 0.15936,-0.32535 0.28196,-0.61394 0.36781,-0.86577 0.0858,-0.25179 0.12918,-0.55169 0.13015,-0.89972 l 0,-3.07828 c 0.008,-0.72334 -0.1547,-1.33636 -0.48664,-1.83906 -0.332,-0.50265 -0.879,-0.76483 -1.641,-0.78654 -0.94407,0.0377 -1.55709,0.38104 -1.83906,1.02987 -0.28201,0.64887 -0.40838,1.37695 -0.37912,2.18422 l 0,2.21818 z"
         style="font-family:OCR A Std;-inkscape-font-specification:OCR A Std"
         id="path3033-2"
         inkscape:connector-curvature="0" />
      <path
         d="m 332.61063,158.80495 c 0.67901,0.0283 1.3354,-0.0962 1.96919,-0.37347 0.63374,-0.27727 0.97326,-0.87709 1.01856,-1.79944 -0.034,-0.90255 -0.35086,-1.4967 -0.95065,-1.78247 -0.59984,-0.28575 -1.27887,-0.4159 -2.0371,-0.39044 l -9.32541,0 c -0.71771,0.006 -1.30809,-0.0509 -1.77114,-0.16976 -0.46308,-0.11883 -0.83843,-0.33385 -1.12607,-0.64508 l -1.08645,-1.17699 c -0.16506,-0.16599 -0.3103,-0.36592 -0.43572,-0.59982 -0.12544,-0.23388 -0.19146,-0.45645 -0.19805,-0.66772 l 0,-1.4486 13.94284,0 c 1.25335,0.0217 2.07385,-0.20276 2.46149,-0.67338 0.38759,-0.47059 0.56301,-1.3175 0.52626,-2.54072 l 0,-3.4857 c 0.0301,-1.18641 -0.0981,-2.23137 -0.38479,-3.13488 -0.28673,-0.90347 -0.91295,-1.74472 -1.87866,-2.52374 l -1.76549,-1.40334 c -0.79977,-0.66015 -1.54294,-1.09398 -2.2295,-1.30148 -0.68659,-0.20746 -1.54293,-0.30177 -2.56901,-0.28293 l -3.98366,0 c -0.84504,-0.0349 -1.61084,0.0462 -2.2974,0.24332 -0.68659,0.19713 -1.5203,0.71961 -2.50111,1.56744 l -1.53915,1.31279 c -0.88086,0.74602 -1.46181,1.51748 -1.74285,2.31438 -0.28105,0.79694 -0.40931,1.76079 -0.38479,2.89155 l 0,8.37476 c -0.0151,1.13739 0.13958,2.05408 0.46401,2.75009 0.32442,0.69601 0.90914,1.40899 1.75417,2.13895 l 1.85603,1.62968 c 0.64318,0.56398 1.23545,0.90727 1.7768,1.02987 0.54133,0.12261 1.24677,0.17165 2.11633,0.14713 z m -13.94284,-16.4779 c 0.004,-0.61205 0.0868,-1.05154 0.24898,-1.31846 0.1622,-0.26688 0.381,-0.49133 0.6564,-0.67337 l 1.49388,-1.08646 c 0.35836,-0.23858 0.71674,-0.38382 1.07513,-0.43571 0.35837,-0.0519 0.73938,-0.0726 1.14304,-0.0622 l 3.66679,0 c 0.34987,-0.008 0.71391,0.0198 1.09211,0.0849 0.37816,0.0651 0.70825,0.21787 0.99026,0.45834 l 1.67495,1.44861 c 0.28008,0.27163 0.44418,0.5772 0.4923,0.9167 0.0481,0.33953 0.065,0.713 0.0509,1.1204 l 0,2.6256 -12.58477,0 z"
         style="font-family:OCR A Std;-inkscape-font-specification:OCR A Std"
         id="path3035-5"
         inkscape:connector-curvature="0" />
      <path
         d="m 346.94786,155.8172 c -0.0255,0.77806 0.10468,1.46275 0.39045,2.05407 0.28575,0.59133 0.87991,0.90255 1.78246,0.93368 0.90254,-0.0311 1.4967,-0.34235 1.78247,-0.93368 0.28574,-0.59132 0.41589,-1.27601 0.39044,-2.05407 l 0,-11.00036 6.06604,-5.02485 c 0.37628,-0.32063 0.73277,-0.57339 1.06948,-0.75825 0.33667,-0.18483 0.70448,-0.27914 1.10343,-0.28293 l 1.26753,0 c 0.53095,-0.016 1.03079,0.0161 1.49953,0.0962 0.4687,0.0802 0.84406,0.30464 1.12607,0.67338 0.21689,0.31124 0.34892,0.61681 0.3961,0.91669 0.0471,0.29993 0.066,0.62813 0.0566,0.9846 -0.007,0.72527 0.16502,1.34583 0.51493,1.86169 0.34987,0.51589 0.91762,0.78562 1.70324,0.80918 0.90064,-0.033 1.48725,-0.35176 1.75983,-0.95631 0.27253,-0.60451 0.39514,-1.29675 0.36781,-2.07671 0.009,-0.98646 -0.13394,-1.87675 -0.43005,-2.67087 -0.29616,-0.79407 -0.80166,-1.54855 -1.51651,-2.26344 -0.58758,-0.58659 -1.23455,-1.02042 -1.94091,-1.30149 -0.7064,-0.28102 -1.47786,-0.42059 -2.31437,-0.41873 l -3.48571,0 c -0.67811,0.0151 -1.33639,0.19996 -1.97486,0.55454 -0.63849,0.35463 -1.26283,0.78846 -1.873,1.30148 l -3.39517,2.80668 0,-1.76549 c 0.017,-0.75446 -0.13016,-1.4184 -0.44137,-1.99183 -0.31123,-0.57339 -0.88841,-0.87518 -1.73154,-0.90538 -0.96197,0.0349 -1.5731,0.37255 -1.83339,1.01289 -0.2603,0.64039 -0.37348,1.37412 -0.33952,2.2012 z"
         style="font-family:OCR A Std;-inkscape-font-specification:OCR A Std"
         id="path3037-5"
         inkscape:connector-curvature="0" />
      <path
         d="m 383.91957,128.42949 c 0.0255,-0.77803 -0.10469,-1.46272 -0.39044,-2.05408 -0.28577,-0.59129 -0.87993,-0.90252 -1.78247,-0.93367 -0.90255,0.0312 -1.49671,0.34238 -1.78246,0.93367 -0.28577,0.59136 -0.41592,1.27605 -0.39045,2.05408 l 0,27.34244 c -0.0255,0.77995 0.10468,1.47218 0.39045,2.07671 0.28575,0.60453 0.87991,0.9233 1.78246,0.95631 0.84313,-0.033 1.42031,-0.34046 1.73154,-0.92236 0.31121,-0.58189 0.45834,-1.24018 0.44137,-1.97486 l 0,-0.27161 0.99592,0.95065 c 0.5998,0.58755 1.23357,1.09871 1.9013,1.53348 0.6677,0.43477 1.43727,0.66301 2.30871,0.6847 l 4.48163,0 c 0.55169,-0.0104 1.12321,-0.15939 1.71456,-0.44703 0.5913,-0.28765 1.1515,-0.65169 1.68061,-1.09212 l 1.49387,-1.26753 c 0.85066,-0.71864 1.45801,-1.45426 1.82208,-2.20686 0.36401,-0.75259 0.54131,-1.69192 0.53191,-2.81799 l 0,-8.73691 c 0.009,-1.12604 -0.1679,-2.06537 -0.53191,-2.81799 -0.36407,-0.75257 -0.97142,-1.48819 -1.82208,-2.20686 l -1.49387,-1.26753 c -0.53854,-0.46021 -1.06856,-0.82991 -1.59007,-1.10909 -0.52156,-0.27913 -1.0629,-0.42248 -1.62403,-0.43005 l -4.79851,0 c -0.96009,0.009 -1.74475,0.22825 -2.35398,0.6564 -0.60926,0.42819 -1.25811,1.00914 -1.94656,1.74285 l -0.76958,0.76957 z m 0,16.11574 c 0.009,-0.64507 0.13769,-1.16566 0.38479,-1.56178 0.24708,-0.39609 0.55642,-0.7356 0.92801,-1.01855 l 2.80668,-2.44452 c 0.25651,-0.2301 0.54698,-0.41495 0.87142,-0.55455 0.32442,-0.13956 0.63753,-0.21123 0.93933,-0.21502 l 3.03302,0 c 0.22444,9.6e-4 0.42061,0.033 0.5885,0.0962 0.16785,0.0632 0.31875,0.15186 0.45269,0.26596 l 1.99183,1.53914 c 0.18294,0.14054 0.32629,0.36877 0.43006,0.68469 0.10372,0.31596 0.15653,0.69132 0.15844,1.12607 l 0,7.69572 c 0.008,0.44704 -0.0198,0.88841 -0.0849,1.32412 -0.0651,0.43572 -0.21788,0.76392 -0.45835,0.9846 l -1.90129,1.58441 c -0.15564,0.13581 -0.34237,0.23766 -0.56021,0.30556 -0.21787,0.0679 -0.48383,0.10186 -0.79786,0.10186 l -3.30463,0 c -0.23391,-0.017 -0.50175,-0.14146 -0.80353,-0.37347 -0.30181,-0.232 -0.59228,-0.46966 -0.87143,-0.71299 l -2.48979,-2.12764 c -0.54984,-0.44891 -0.9101,-0.87519 -1.08079,-1.27884 -0.17072,-0.40364 -0.24805,-0.9431 -0.23201,-1.61837 z"
         style="font-family:OCR A Std;-inkscape-font-specification:OCR A Std"
         id="path3039-3"
         inkscape:connector-curvature="0" />
      <path
         d="m 424.87494,138.75081 c 1.52687,-0.0453 2.55862,0.18109 3.09527,0.67903 0.5366,0.49798 0.78747,1.53916 0.75259,3.12356 l 0,0.99591 -9.3254,0 c -0.94972,-0.0141 -1.84566,0.0934 -2.68784,0.32255 -0.8422,0.22918 -1.63629,0.6649 -2.38228,1.30714 -0.80164,0.70545 -1.35996,1.43352 -1.67495,2.18422 -0.315,0.75072 -0.4659,1.63724 -0.45269,2.65955 l 0,1.9013 c -0.0189,1.11947 0.13203,2.10595 0.45269,2.95945 0.32065,0.85352 0.92423,1.64761 1.81076,2.38228 0.7771,0.63848 1.55422,1.05911 2.33135,1.26187 0.7771,0.20277 1.64476,0.2952 2.60296,0.27728 l 4.16474,0 c 0.64884,0.0132 1.11662,-0.0132 1.40334,-0.0792 0.28669,-0.066 0.7092,-0.25087 1.26753,-0.55455 l 2.98775,-1.53914 c 0.002,0.62528 0.22444,1.14021 0.66772,1.5448 0.44323,0.40459 0.96005,0.61396 1.55046,0.62811 0.72145,-0.0264 1.2477,-0.29048 1.57875,-0.79221 0.33101,-0.50173 0.48379,-1.08268 0.45835,-1.74285 l -0.45269,-14.75768 c 0.004,-1.06097 -0.11697,-1.98332 -0.36215,-2.76706 -0.24523,-0.7837 -0.77337,-1.58156 -1.58441,-2.3936 -0.84505,-0.83368 -1.7127,-1.37313 -2.60297,-1.61836 -0.89031,-0.24519 -1.89377,-0.35458 -3.01038,-0.3282 l -5.9755,0 c -0.75827,-0.0254 -1.4373,0.10471 -2.0371,0.39044 -0.59983,0.28579 -0.91671,0.87994 -0.95065,1.78247 0.0453,0.92237 0.38477,1.52219 1.01855,1.79944 0.63375,0.27729 1.29015,0.40178 1.9692,0.37347 z m 0.99592,9.14432 c 1.17791,-0.0198 1.99087,0.20089 2.43886,0.66206 0.44796,0.46119 0.6611,1.28169 0.63943,2.4615 l 0,0.95065 -4.79851,2.48979 -4.79851,0 c -0.57247,0.017 -1.1704,-0.0962 -1.79378,-0.33952 -0.6234,-0.24332 -0.96103,-0.71864 -1.01289,-1.42597 l 0,-2.89721 c 0.0471,-0.77239 0.38289,-1.28733 1.00723,-1.54481 0.62432,-0.25745 1.25432,-0.37628 1.88998,-0.35649 z"
         style="font-family:OCR A Std;-inkscape-font-specification:OCR A Std"
         id="path3041-3"
         inkscape:connector-curvature="0" />
      <path
         d="m 453.56243,138.75081 7.2883,0 c 0.67901,0.0283 1.33541,-0.0962 1.9692,-0.37347 0.63374,-0.27726 0.97326,-0.87707 1.01855,-1.79944 -0.034,-0.90253 -0.35086,-1.49668 -0.95065,-1.78247 -0.59983,-0.28573 -1.27887,-0.41588 -2.0371,-0.39044 l -7.2883,0 0,-4.43636 c 0.0254,-0.77803 -0.1047,-1.46272 -0.39044,-2.05408 -0.28578,-0.59129 -0.87993,-0.90251 -1.78247,-0.93367 -0.90256,0.0312 -1.49671,0.34238 -1.78246,0.93367 -0.28577,0.59136 -0.41592,1.27605 -0.39045,2.05408 l 0,4.43636 -1.40333,0 c -0.75827,-0.0254 -1.4373,0.10471 -2.03711,0.39044 -0.59982,0.28579 -0.9167,0.87994 -0.95065,1.78247 0.0453,0.92237 0.38478,1.52219 1.01856,1.79944 0.63375,0.27729 1.29015,0.40178 1.9692,0.37347 l 1.40333,0 0,11.81519 c -0.0387,1.16663 0.016,2.23988 0.1641,3.21975 0.14806,0.97989 0.6215,1.92865 1.42032,2.84629 0.77144,0.82333 1.62778,1.39485 2.56901,1.71456 0.9412,0.31971 1.95598,0.47249 3.04433,0.45835 l 2.21818,0 c 1.16,0.0264 2.24645,-0.10563 3.25937,-0.39611 1.01286,-0.29047 1.91824,-0.89783 2.71613,-1.82207 0.3791,-0.4508 0.71862,-1.00912 1.01855,-1.67495 0.29988,-0.66583 0.45832,-1.31468 0.47533,-1.94657 -0.0161,-0.62527 -0.23298,-1.1402 -0.65074,-1.5448 -0.41782,-0.40458 -0.9403,-0.61395 -1.56744,-0.62811 -0.54891,0.008 -1.01292,0.1726 -1.39202,0.4923 -0.37915,0.31972 -0.63945,0.74412 -0.78089,1.27319 -0.21411,0.85163 -0.55551,1.3892 -1.02421,1.61271 -0.46874,0.22352 -1.13835,0.31971 -2.00881,0.28859 l -2.21818,0 c -1.42787,-0.008 -2.28421,-0.34329 -2.56901,-1.00724 -0.28483,-0.66393 -0.39423,-1.61081 -0.3282,-2.84062 z"
         style="font-family:OCR A Std;-inkscape-font-specification:OCR A Std"
         id="path3043-3"
         inkscape:connector-curvature="0" />
      <path
         d="m 490.35307,137.43801 c 0.0217,-1.25525 -0.20278,-2.08329 -0.67337,-2.48414 -0.47063,-0.40079 -1.31753,-0.58375 -2.54072,-0.54888 l -4.57216,0 c -0.75827,-0.0254 -1.4373,0.10471 -2.03711,0.39044 -0.59982,0.28579 -0.9167,0.87994 -0.95064,1.78247 0.0453,0.92237 0.38477,1.52219 1.01855,1.79944 0.63375,0.27729 1.29015,0.40178 1.9692,0.37347 l 3.44044,0 0,15.70832 -3.44044,0 c -0.75827,-0.0255 -1.4373,0.10469 -2.03711,0.39044 -0.59982,0.28577 -0.9167,0.87992 -0.95064,1.78247 0.0453,0.92235 0.38477,1.52217 1.01855,1.79944 0.63375,0.27727 1.29015,0.40176 1.9692,0.37347 l 11.04562,0 c 0.67901,0.0283 1.33541,-0.0962 1.9692,-0.37347 0.63374,-0.27727 0.97325,-0.87709 1.01855,-1.79944 -0.034,-0.90255 -0.35086,-1.4967 -0.95065,-1.78247 -0.59984,-0.28575 -1.27887,-0.4159 -2.0371,-0.39044 l -3.25937,0 z m -6.56399,-9.73283 c 0.0113,0.75829 0.2037,1.2902 0.57718,1.59573 0.37345,0.3056 0.86009,0.45272 1.45992,0.44138 l 2.48979,0 c 0.5998,0.0113 1.08644,-0.13578 1.45992,-0.44138 0.37345,-0.30553 0.56585,-0.83744 0.57718,-1.59573 l 0,-2.08237 c -0.0113,-0.75822 -0.20373,-1.29013 -0.57718,-1.59573 -0.37348,-0.30553 -0.86012,-0.45265 -1.45992,-0.44137 l -2.48979,0 c -0.59983,-0.0113 -1.08647,0.13584 -1.45993,0.44137 -0.37348,0.3056 -0.56587,0.83751 -0.57717,1.59573 z"
         style="font-family:OCR A Std;-inkscape-font-specification:OCR A Std"
         id="path3045-7"
         inkscape:connector-curvature="0" />
      <path
         d="m 523.7938,140.69737 c 0.19426,-0.24047 0.4621,-0.54038 0.80352,-0.89972 0.34139,-0.3593 0.67713,-0.55735 1.00724,-0.59415 0.55358,0.0481 0.86103,0.3367 0.92235,0.86576 0.0613,0.5291 0.0858,1.01009 0.0736,1.44295 l 0.45269,14.35026 c -2e-5,0.75637 0.1471,1.42785 0.44138,2.01446 0.29422,0.58661 0.8714,0.89595 1.73153,0.92802 0.94308,-0.0396 1.54667,-0.39045 1.81076,-1.05251 0.26404,-0.66205 0.36967,-1.39767 0.31688,-2.20686 l -0.45269,-15.02929 c 0.005,-0.82613 -0.0387,-1.58439 -0.13015,-2.27476 -0.0915,-0.69033 -0.39518,-1.38068 -0.91103,-2.07105 -0.43669,-0.56867 -0.96671,-1.00438 -1.59008,-1.30714 -0.62341,-0.30272 -1.30056,-0.4555 -2.03144,-0.45835 -0.9054,-0.009 -1.60707,0.12263 -2.105,0.3961 -0.49798,0.27353 -1.06384,0.74508 -1.69759,1.41466 l -0.36215,0.36215 c -0.49703,-0.68467 -1.0761,-1.21658 -1.7372,-1.59573 -0.66113,-0.37911 -1.40995,-0.5715 -2.24647,-0.57718 -0.72054,0.007 -1.31658,0.14054 -1.78812,0.40176 -0.47156,0.26126 -0.97707,0.61021 -1.51651,1.04684 l -0.36215,0.27162 c -0.13771,-0.50737 -0.38291,-0.91856 -0.73562,-1.23358 -0.35273,-0.31498 -0.80165,-0.47719 -1.34675,-0.48664 -0.90633,0.0321 -1.51558,0.35274 -1.82774,0.96196 -0.31217,0.60927 -0.45741,1.31471 -0.43571,2.11633 l 0,18.33392 c -0.0255,0.77806 0.10468,1.46275 0.39045,2.05407 0.28575,0.59133 0.8799,0.90255 1.78246,0.93368 0.90254,-0.0311 1.49669,-0.34235 1.78246,-0.93368 0.28575,-0.59132 0.4159,-1.27601 0.39045,-2.05407 l 0,-14.12391 1.90129,-1.76549 c 0.17635,-0.1688 0.35554,-0.32913 0.53757,-0.48098 0.18201,-0.15183 0.39515,-0.23293 0.63943,-0.24332 0.53849,0.0415 0.85349,0.29804 0.94499,0.76957 0.0915,0.47157 0.12353,0.90917 0.0962,1.3128 l 0,14.53133 c -0.0255,0.77806 0.10467,1.46275 0.39045,2.05407 0.28574,0.59133 0.8799,0.90255 1.78246,0.93368 0.90253,-0.0311 1.49669,-0.34235 1.78246,-0.93368 0.28575,-0.59132 0.41589,-1.27601 0.39045,-2.05407 l 0,-14.12391 z"
         style="font-family:OCR A Std;-inkscape-font-specification:OCR A Std"
         id="path3047-4"
         inkscape:connector-curvature="0" />
      <path
         d="m 328.35534,195.33771 c 0.58093,-0.0122 1.08266,0.0349 1.5052,0.14147 0.42248,0.10659 0.81104,0.34613 1.16567,0.71864 0.26405,0.29521 0.53943,0.51967 0.82616,0.67338 0.28668,0.15374 0.62997,0.23107 1.02987,0.232 0.60733,-0.0141 1.12415,-0.2235 1.55046,-0.62811 0.42625,-0.40457 0.64883,-0.9195 0.66772,-1.5448 -0.0208,-0.59413 -0.20563,-1.06946 -0.55455,-1.42597 -0.34897,-0.35647 -0.73753,-0.69599 -1.16567,-1.01855 -0.77243,-0.65638 -1.51371,-1.07512 -2.22384,-1.25622 -0.71018,-0.18105 -1.64385,-0.26027 -2.80102,-0.23766 l -7.4241,0 c -1.67496,0.0151 -3.0783,0.50553 -4.21001,1.47124 -1.13173,0.96576 -1.72023,2.31628 -1.76549,4.05157 0.008,1.38072 0.34234,2.47849 1.00157,3.29332 0.65922,0.81485 1.59289,1.48257 2.80102,2.00315 l 10.23078,4.6627 c 0.53,0.22352 1.03173,0.51211 1.50519,0.86577 0.47342,0.35367 0.72617,0.78938 0.75826,1.30714 -0.0547,1.20906 -0.46592,1.92582 -1.23358,2.15027 -0.76771,0.22447 -1.56369,0.30746 -2.38794,0.24898 l -5.88496,0 c -0.69131,0.0142 -1.34582,-0.0368 -1.96354,-0.15278 -0.61775,-0.116 -1.12513,-0.38195 -1.52217,-0.79786 -0.24522,-0.26973 -0.50174,-0.46589 -0.76957,-0.5885 -0.26785,-0.1226 -0.56964,-0.18296 -0.90538,-0.18108 -0.62906,0.0142 -1.15908,0.22353 -1.59007,0.62811 -0.43101,0.4046 -0.65547,0.91953 -0.67338,1.5448 0.0321,0.54135 0.26218,1.02044 0.69035,1.43729 0.42817,0.41686 0.86199,0.78278 1.30149,1.09777 0.79785,0.61113 1.62401,0.99592 2.47847,1.15436 0.85444,0.15844 1.83904,0.22635 2.9538,0.20371 l 6.6998,0 c 2.12007,0.005 3.83275,-0.52531 5.13803,-1.59007 1.30522,-1.06476 1.97671,-2.69256 2.01446,-4.88339 -0.002,-1.54385 -0.36029,-2.80195 -1.07513,-3.7743 -0.7149,-0.97232 -1.77495,-1.76642 -3.18015,-2.38227 l -10.86454,-4.93432 c -0.32633,-0.12636 -0.60171,-0.28103 -0.82616,-0.46401 -0.22447,-0.18294 -0.34142,-0.45078 -0.35083,-0.80352 0.0453,-0.66487 0.3395,-1.04399 0.88274,-1.13738 0.54321,-0.0934 1.06381,-0.12164 1.56178,-0.0849 z"
         style="font-family:OCR A Std;-inkscape-font-specification:OCR A Std"
         id="path3049-3"
         inkscape:connector-curvature="0" />
      <path
         d="m 365.23651,215.39185 c 0.67901,0.0283 1.33541,-0.0962 1.9692,-0.37347 0.63374,-0.27727 0.97326,-0.87708 1.01855,-1.79944 -0.034,-0.90254 -0.35086,-1.4967 -0.95064,-1.78246 -0.59984,-0.28576 -1.27888,-0.41591 -2.03711,-0.39045 l -9.3254,0 c -0.71771,0.006 -1.3081,-0.0509 -1.77115,-0.16976 -0.46307,-0.11882 -0.83843,-0.33385 -1.12606,-0.64508 l -1.08646,-1.17699 c -0.16505,-0.16598 -0.31029,-0.36592 -0.43571,-0.59982 -0.12544,-0.23388 -0.19146,-0.45645 -0.19805,-0.66771 l 0,-1.44861 13.94283,0 c 1.25336,0.0217 2.07386,-0.20275 2.4615,-0.67337 0.38759,-0.4706 0.56301,-1.31751 0.52625,-2.54072 l 0,-3.48571 c 0.0302,-1.18641 -0.0981,-2.23136 -0.38478,-3.13487 -0.28673,-0.90348 -0.91295,-1.74472 -1.87866,-2.52375 l -1.76549,-1.40333 c -0.79978,-0.66015 -1.54294,-1.09398 -2.2295,-1.30149 -0.6866,-0.20746 -1.54293,-0.30177 -2.56901,-0.28293 l -3.98367,0 c -0.84503,-0.0349 -1.61083,0.0462 -2.2974,0.24332 -0.68659,0.19713 -1.52029,0.71961 -2.50111,1.56744 l -1.53914,1.3128 c -0.88086,0.74601 -1.46181,1.51747 -1.74285,2.31437 -0.28106,0.79694 -0.40932,1.76079 -0.38479,2.89156 l 0,8.37475 c -0.0151,1.13739 0.13957,2.05409 0.46401,2.75009 0.32442,0.69601 0.90914,1.409 1.75417,2.13896 l 1.85603,1.62968 c 0.64318,0.56397 1.23545,0.90726 1.7768,1.02987 0.54133,0.1226 1.24677,0.17164 2.11632,0.14712 z m -13.94283,-16.47789 c 0.004,-0.61206 0.0867,-1.05155 0.24898,-1.31846 0.1622,-0.26688 0.381,-0.49134 0.6564,-0.67338 l 1.49387,-1.08645 c 0.35837,-0.23859 0.71675,-0.38382 1.07514,-0.43572 0.35837,-0.0519 0.73938,-0.0726 1.14304,-0.0622 l 3.66679,0 c 0.34987,-0.008 0.71391,0.0198 1.09211,0.0849 0.37816,0.0651 0.70825,0.21788 0.99026,0.45835 l 1.67495,1.4486 c 0.28008,0.27164 0.44418,0.5772 0.4923,0.9167 0.0481,0.33953 0.065,0.713 0.0509,1.12041 l 0,2.62559 -12.58476,0 z"
         style="font-family:OCR A Std;-inkscape-font-specification:OCR A Std"
         id="path3051-8"
         inkscape:connector-curvature="0" />
      <path
         d="m 392.24905,195.33771 c 1.52687,-0.0452 2.55862,0.1811 3.09527,0.67903 0.5366,0.49798 0.78746,1.53917 0.75259,3.12356 l 0,0.99592 -9.3254,0 c -0.94972,-0.0141 -1.84566,0.0934 -2.68784,0.32254 -0.8422,0.22919 -1.6363,0.6649 -2.38228,1.30714 -0.80164,0.70545 -1.35996,1.43353 -1.67495,2.18423 -0.315,0.75072 -0.4659,1.63723 -0.45269,2.65955 l 0,1.90129 c -0.0189,1.11947 0.13203,2.10596 0.45269,2.95946 0.32065,0.85351 0.92423,1.6476 1.81076,2.38228 0.7771,0.63848 1.55422,1.0591 2.33135,1.26187 0.7771,0.20277 1.64476,0.29519 2.60296,0.27727 l 4.16474,0 c 0.64884,0.0132 1.11662,-0.0132 1.40334,-0.0792 0.28669,-0.066 0.7092,-0.25086 1.26753,-0.55454 l 2.98775,-1.53915 c 0.002,0.62528 0.22444,1.14021 0.66772,1.5448 0.44323,0.4046 0.96005,0.61396 1.55046,0.62811 0.72145,-0.0264 1.2477,-0.29047 1.57875,-0.79221 0.33101,-0.50173 0.48379,-1.08268 0.45835,-1.74285 l -0.45269,-14.75767 c 0.004,-1.06098 -0.11697,-1.98333 -0.36215,-2.76707 -0.24523,-0.7837 -0.77337,-1.58156 -1.58441,-2.39359 -0.84505,-0.83368 -1.7127,-1.37314 -2.60297,-1.61837 -0.89031,-0.24518 -1.89377,-0.35458 -3.01038,-0.3282 l -5.9755,0 c -0.75827,-0.0254 -1.4373,0.10471 -2.0371,0.39045 -0.59983,0.28578 -0.91671,0.87994 -0.95065,1.78246 0.0453,0.92238 0.38477,1.52219 1.01855,1.79944 0.63375,0.27729 1.29015,0.40178 1.9692,0.37347 z m 0.99592,9.14433 c 1.17791,-0.0198 1.99087,0.20089 2.43886,0.66206 0.44796,0.46118 0.6611,1.28168 0.63943,2.46149 l 0,0.95065 -4.79851,2.48979 -4.79851,0 c -0.57247,0.017 -1.1704,-0.0962 -1.79378,-0.33951 -0.6234,-0.24332 -0.96103,-0.71864 -1.01289,-1.42598 l 0,-2.89721 c 0.0471,-0.77239 0.38289,-1.28732 1.00723,-1.5448 0.62432,-0.25746 1.25432,-0.37629 1.88998,-0.35649 z"
         style="font-family:OCR A Std;-inkscape-font-specification:OCR A Std"
         id="path3053-0"
         inkscape:connector-curvature="0" />
      <path
         d="m 412.19964,212.4041 c -0.0255,0.77806 0.10468,1.46275 0.39045,2.05408 0.28575,0.59132 0.87991,0.90255 1.78246,0.93367 0.90254,-0.0311 1.4967,-0.34234 1.78246,-0.93367 0.28575,-0.59133 0.4159,-1.27602 0.39045,-2.05408 l 0,-11.00035 6.06604,-5.02485 c 0.37628,-0.32064 0.73277,-0.57339 1.06948,-0.75826 0.33667,-0.18483 0.70448,-0.27914 1.10343,-0.28293 l 1.26753,0 c 0.53095,-0.016 1.03079,0.0161 1.49953,0.0962 0.4687,0.0802 0.84406,0.30464 1.12607,0.67337 0.21689,0.31125 0.34892,0.61681 0.3961,0.9167 0.0471,0.29992 0.066,0.62812 0.0566,0.9846 -0.007,0.72526 0.16502,1.34582 0.51493,1.86168 0.34987,0.51589 0.91761,0.78562 1.70324,0.80919 0.90064,-0.033 1.48725,-0.35177 1.75983,-0.95631 0.27253,-0.60451 0.39514,-1.29675 0.36781,-2.07671 0.009,-0.98647 -0.13394,-1.87676 -0.43005,-2.67087 -0.29616,-0.79407 -0.80167,-1.54855 -1.51651,-2.26345 -0.58758,-0.58658 -1.23455,-1.02041 -1.94091,-1.30148 -0.7064,-0.28102 -1.47786,-0.4206 -2.31437,-0.41874 l -3.48571,0 c -0.67811,0.0151 -1.33639,0.19996 -1.97486,0.55455 -0.63849,0.35463 -1.26283,0.78845 -1.873,1.30148 l -3.39517,2.80667 0,-1.76549 c 0.017,-0.75446 -0.13016,-1.4184 -0.44137,-1.99183 -0.31123,-0.57338 -0.88841,-0.87517 -1.73154,-0.90538 -0.96197,0.0349 -1.5731,0.37255 -1.83339,1.01289 -0.2603,0.64039 -0.37348,1.37413 -0.33952,2.20121 z"
         style="font-family:OCR A Std;-inkscape-font-specification:OCR A Std"
         id="path3055-8"
         inkscape:connector-curvature="0" />
      <path
         d="m 444.82553,205.29688 c -0.0226,1.29866 0.14712,2.36814 0.50927,3.20843 0.36215,0.84031 1.0525,1.67213 2.07106,2.49545 l 3.21409,2.67087 c 0.96667,0.80447 1.83998,1.30054 2.61994,1.48822 0.77993,0.18767 1.77773,0.26501 2.99341,0.232 l 6.88088,0 c 0.75823,0.0255 1.43726,-0.10468 2.0371,-0.39044 0.59979,-0.28576 0.91667,-0.87992 0.95065,-1.78247 -0.0453,-0.92235 -0.38481,-1.52216 -1.01855,-1.79944 -0.63379,-0.27727 -1.29019,-0.40176 -1.9692,-0.37347 l -7.65045,0 c -0.43196,-0.006 -0.85824,-0.10751 -1.27885,-0.30556 -0.42064,-0.19805 -0.82429,-0.45835 -1.21094,-0.78089 l -2.6256,-2.21818 c -0.34613,-0.26123 -0.62718,-0.53096 -0.84314,-0.80918 -0.21598,-0.27821 -0.32726,-0.62716 -0.33385,-1.04685 l 0,-5.387 c 0.007,-0.41967 0.11787,-0.76861 0.33385,-1.04684 0.21596,-0.2782 0.49701,-0.54793 0.84314,-0.80919 l 2.6256,-2.21817 c 0.38665,-0.32253 0.7903,-0.58282 1.21094,-0.7809 0.42061,-0.19803 0.84689,-0.29988 1.27885,-0.30556 l 7.65045,0 c 0.67901,0.0283 1.33541,-0.0962 1.9692,-0.37347 0.63374,-0.27725 0.97325,-0.87706 1.01855,-1.79944 -0.034,-0.90253 -0.35086,-1.49668 -0.95065,-1.78246 -0.59984,-0.28574 -1.27887,-0.41589 -2.0371,-0.39045 l -6.88088,0 c -1.21568,-0.033 -2.21348,0.0443 -2.99341,0.23201 -0.77996,0.1877 -1.65327,0.68377 -2.61994,1.48821 l -3.21409,2.67087 c -1.01856,0.82335 -1.70891,1.65516 -2.07106,2.49545 -0.36216,0.84032 -0.53191,1.9098 -0.50927,3.20844 z"
         style="font-family:OCR A Std;-inkscape-font-specification:OCR A Std"
         id="path3057-8"
         inkscape:connector-curvature="0" />
      <path
         d="m 491.57532,195.33771 c 1.16377,0.0245 1.85789,0.38292 2.08237,1.07514 0.22444,0.69225 0.33007,1.57123 0.31689,2.63691 l 0.45268,13.39961 c -2e-5,0.75637 0.14711,1.42786 0.44138,2.01447 0.29422,0.58661 0.8714,0.89595 1.73153,0.92801 0.94308,-0.0396 1.54667,-0.39044 1.81076,-1.0525 0.26404,-0.66206 0.36967,-1.39768 0.31688,-2.20686 l -0.45269,-13.67122 c 9.2e-4,-1.17038 -0.0915,-2.23608 -0.27727,-3.19712 -0.18582,-0.961 -0.74225,-1.85695 -1.66929,-2.68784 -0.91389,-0.75918 -1.73439,-1.2213 -2.4615,-1.38637 -0.72715,-0.16502 -1.30999,-0.23103 -1.74851,-0.19805 l -2.89721,0 c -0.72527,0.0151 -1.41373,0.16601 -2.0654,0.45269 -0.6517,0.28673 -1.26094,0.6187 -1.82773,0.99592 l -3.53098,2.30871 0,-9.73282 c 0.0254,-0.77803 -0.10469,-1.46272 -0.39044,-2.05408 -0.28577,-0.59129 -0.87993,-0.90251 -1.78247,-0.93367 -0.90256,0.0312 -1.49671,0.34238 -1.78246,0.93367 -0.28577,0.59136 -0.41592,1.27605 -0.39045,2.05408 l 0,27.38771 c -0.0255,0.77806 0.10468,1.46275 0.39045,2.05408 0.28575,0.59132 0.87991,0.90255 1.78246,0.93367 0.90254,-0.0311 1.4967,-0.34234 1.78246,-0.93367 0.28575,-0.59133 0.4159,-1.27602 0.39045,-2.05408 l 0,-12.63003 6.42819,-4.02894 c 0.45267,-0.27159 0.90536,-0.4074 1.35807,-0.40742 z"
         style="font-family:OCR A Std;-inkscape-font-specification:OCR A Std"
         id="path3059-0"
         inkscape:connector-curvature="0" />
    </g>
    <rect
       style="fill:#e5e5e5;fill-opacity:1;fill-rule:nonzero;stroke:none"
       id="rect3765-1-8-6"
       width="1400"
       height="560"
       x="802.85718"
       y="872.93359"
       inkscape:export-filename="E:\Taff\Verbatim-search\media\vs_1400_560.png"
       inkscape:export-xdpi="90.000008"
       inkscape:export-ydpi="90.000008" />
    <g
       id="g4801"
       transform="translate(-220,0)">
      <rect
         inkscape:export-ydpi="76.799973"
         inkscape:export-xdpi="76.799973"
         inkscape:export-filename="E:\Taff\verbatim_search\icon-128.png"
         ry="41.558441"
         rx="41.558441"
         y="937.08942"
         x="1073.9196"
         height="311.68832"
         width="311.68832"
         id="rect2985-7-3-8"
         style="fill:#9800ff;fill-opacity:1;fill-rule:nonzero;stroke:none" />
      <g
         id="g4795">
        <g
           style="font-size:90.62097168px;font-style:normal;font-variant:normal;font-weight:normal;font-stretch:normal;text-align:start;line-height:125%;letter-spacing:0px;word-spacing:0px;writing-mode:lr-tb;text-anchor:start;fill:#ffffff;fill-opacity:1;stroke:none;font-family:OCR A Std;-inkscape-font-specification:OCR A Std"
           id="text3755-4-4-1"
           transform="matrix(2.0779221,0,0,2.0779221,827.65566,740.71532)">
          <path
             d="m 144.13889,139.14445 c -0.62681,0.37198 -1.07236,0.82886 -1.33664,1.37063 -0.26434,0.54189 -0.39271,1.11204 -0.38514,1.71045 0.0245,1.14413 0.40588,2.18625 1.14408,3.12638 0.73815,0.94023 1.68588,1.43864 2.8432,1.49523 0.54369,-0.0151 1.0874,-0.16609 1.63115,-0.4531 l 17.30838,-8.51826 c 0.62863,-0.32466 1.09306,-0.74001 1.39328,-1.24603 0.30013,-0.5059 0.47005,-1.05717 0.50974,-1.65381 0.0434,-1.39132 -0.40595,-2.68643 -1.34797,-3.88532 -0.94212,-1.19876 -2.09374,-1.83687 -3.45488,-1.91435 -0.32476,0.002 -0.64949,0.0435 -0.97416,0.12461 -0.32477,0.0812 -0.60418,0.19075 -0.83823,0.32849 z"
             style="letter-spacing:-22.65524292px;fill:#ffffff"
             id="path3026-8-9"
             inkscape:connector-curvature="0" />
          <path
             d="m 197.57822,159.53391 c 3.05649,-0.0906 5.12186,0.36252 6.19613,1.3593 1.07417,0.99685 1.57636,3.0811 1.50655,6.25276 l 0,1.99364 -18.66768,0 c -1.90115,-0.0283 -3.69467,0.18693 -5.38055,0.64566 -1.68593,0.4588 -3.27555,1.33101 -4.76887,2.61665 -1.60474,1.41219 -2.72238,2.86965 -3.35293,4.37241 -0.63057,1.5028 -0.93264,3.27743 -0.9062,5.32391 l 0,3.80603 c -0.0378,2.24096 0.2643,4.21572 0.9062,5.92427 0.64188,1.70857 1.85014,3.29819 3.62479,4.76887 1.55562,1.27812 3.11126,2.12013 4.66692,2.52603 1.55562,0.4059 3.2925,0.59091 5.21064,0.55504 l 8.33702,0 c 1.29885,0.0264 2.23526,-0.0264 2.80922,-0.15858 0.57389,-0.13216 1.41967,-0.50219 2.53735,-1.1101 l 5.98091,-3.08107 c 0.004,1.25169 0.44928,2.28249 1.33664,3.0924 0.88728,0.80992 1.92185,1.22903 3.10373,1.25735 1.4442,-0.0529 2.49766,-0.58148 3.16037,-1.58585 0.6626,-1.00436 0.96844,-2.16732 0.91752,-3.48886 l -0.9062,-29.54205 c 0.007,-2.12387 -0.23415,-3.97024 -0.72496,-5.53914 -0.4909,-1.56881 -1.54813,-3.16599 -3.17169,-4.79152 -1.69162,-1.66887 -3.4285,-2.74876 -5.21064,-3.23966 -1.78223,-0.49081 -3.79097,-0.70981 -6.02621,-0.65699 l -11.96182,0 c -1.5179,-0.0509 -2.8772,0.20961 -4.07789,0.7816 -1.20073,0.57208 -1.83507,1.76146 -1.90302,3.56815 0.0906,1.84642 0.77025,3.04713 2.03895,3.60214 1.26865,0.55508 2.58264,0.80429 3.94196,0.74761 z m 1.99363,18.3052 c 2.35796,-0.0396 3.98534,0.40215 4.88215,1.32532 0.89671,0.9232 1.32338,2.56569 1.28,4.92745 l 0,1.90301 -9.6057,4.98409 -9.6057,0 c -1.14599,0.034 -2.34292,-0.19256 -3.59081,-0.67965 -1.24793,-0.48707 -1.9238,-1.43858 -2.02762,-2.85452 l 0,-5.79967 c 0.0944,-1.54618 0.76648,-2.57698 2.01629,-3.0924 1.24978,-0.51538 2.5109,-0.75326 3.78338,-0.71363 z"
             style="letter-spacing:-22.65524292px;fill:#ffffff"
             id="path3028-4-8"
             inkscape:connector-curvature="0" />
          <path
             d="m 229.45003,139.14445 c -0.62681,0.37198 -1.07236,0.82886 -1.33664,1.37063 -0.26433,0.54189 -0.39271,1.11204 -0.38513,1.71045 0.0245,1.14413 0.40587,2.18625 1.14407,3.12638 0.73815,0.94023 1.68588,1.43864 2.8432,1.49523 0.54369,-0.0151 1.08741,-0.16609 1.63115,-0.4531 l 17.30839,-8.51826 c 0.62862,-0.32466 1.09305,-0.74001 1.39328,-1.24603 0.30013,-0.5059 0.47004,-1.05717 0.50973,-1.65381 0.0434,-1.39132 -0.40595,-2.68643 -1.34797,-3.88532 -0.94211,-1.19876 -2.09374,-1.83687 -3.45488,-1.91435 -0.32476,0.002 -0.64948,0.0435 -0.97416,0.12461 -0.32477,0.0812 -0.60418,0.19075 -0.83823,0.32849 z"
             style="letter-spacing:-22.65524292px;fill:#ffffff"
             id="path3030-9-9"
             inkscape:connector-curvature="0" />
        </g>
      </g>
    </g>
    <g
       id="g5123"
       transform="matrix(0.95195588,0,0,0.95195588,-120.6405,99.75145)">
      <g
         id="g4743">
        <path
           inkscape:connector-curvature="0"
           id="path3033-2-2"
           style="font-size:45.26952362px;font-style:normal;font-variant:normal;font-weight:normal;font-stretch:normal;text-align:center;line-height:125%;letter-spacing:0px;word-spacing:0px;text-anchor:middle;fill:#000000;fill-opacity:1;stroke:none;font-family:OCR A Std;-inkscape-font-specification:OCR A Std"
           d="m 1412.2464,1062.7217 -13.0751,-30.0069 0,-4.6092 c 0.061,-1.6774 -0.2018,-3.1903 -0.7878,-4.5386 -0.586,-1.3483 -1.8598,-2.0616 -3.8214,-2.14 -1.5834,0.045 -2.7201,0.5899 -3.4099,1.6344 -0.6898,1.0445 -1.0269,2.3183 -1.0112,3.8214 l 0,6.3964 c 0,0.7232 0.092,1.3464 0.2705,1.8696 0.1783,0.5232 0.4331,1.1229 0.7643,1.799 l 13.4513,29.5365 c 0.4252,1.0582 1.0327,2.234 1.8225,3.5274 0.7897,1.2934 1.75,1.9989 2.8808,2.1165 l 5.832,0 c 1.1307,-0.1176 2.091,-0.8231 2.8808,-2.1165 0.7897,-1.2934 1.3972,-2.4692 1.8225,-3.5274 l 13.4513,-29.5365 c 0.3312,-0.6761 0.5859,-1.2758 0.7643,-1.799 0.1783,-0.5232 0.2684,-1.1464 0.2705,-1.8696 l 0,-6.3964 c 0.017,-1.5031 -0.3215,-2.7769 -1.0112,-3.8214 -0.6899,-1.0445 -1.8265,-1.5893 -3.4099,-1.6344 -1.9617,0.078 -3.2355,0.7918 -3.8214,2.14 -0.586,1.3483 -0.8486,2.8612 -0.7878,4.5386 l 0,4.6092 z" />
        <path
           inkscape:connector-curvature="0"
           id="path3035-5-2"
           style="font-size:45.26952362px;font-style:normal;font-variant:normal;font-weight:normal;font-stretch:normal;text-align:center;line-height:125%;letter-spacing:0px;word-spacing:0px;text-anchor:middle;fill:#000000;fill-opacity:1;stroke:none;font-family:OCR A Std;-inkscape-font-specification:OCR A Std"
           d="m 1495.9375,1072.1282 c 1.4109,0.059 2.7749,-0.1999 4.0918,-0.776 1.3169,-0.5762 2.0224,-1.8226 2.1165,-3.7391 -0.071,-1.8755 -0.729,-3.1101 -1.9754,-3.7039 -1.2464,-0.5937 -2.6574,-0.8642 -4.2329,-0.8113 l -19.3775,0 c -1.4913,0.013 -2.7181,-0.1057 -3.6803,-0.3527 -0.9622,-0.2469 -1.7422,-0.6937 -2.3399,-1.3404 l -2.2575,-2.4457 c -0.343,-0.345 -0.6448,-0.7604 -0.9054,-1.2464 -0.2607,-0.486 -0.3978,-0.9485 -0.4115,-1.3875 l 0,-3.0101 28.9721,0 c 2.6044,0.045 4.3093,-0.4213 5.1148,-1.3992 0.8054,-0.9778 1.1699,-2.7377 1.0935,-5.2794 l 0,-7.243 c 0.063,-2.4653 -0.2038,-4.6366 -0.7996,-6.5141 -0.5958,-1.8773 -1.897,-3.6254 -3.9037,-5.2441 l -3.6685,-2.916 c -1.6619,-1.3718 -3.2061,-2.2732 -4.6327,-2.7044 -1.4267,-0.4311 -3.2061,-0.6271 -5.3382,-0.5879 l -8.2778,0 c -1.7559,-0.072 -3.3472,0.096 -4.7738,0.5056 -1.4267,0.4096 -3.1591,1.4953 -5.1971,3.257 l -3.1982,2.7279 c -1.8304,1.5502 -3.0376,3.1532 -3.6215,4.8091 -0.584,1.656 -0.8506,3.6588 -0.7996,6.0084 l 0,17.4021 c -0.031,2.3634 0.29,4.2682 0.9642,5.7145 0.6741,1.4462 1.8891,2.9277 3.645,4.4445 l 3.8567,3.3864 c 1.3365,1.1719 2.5671,1.8852 3.692,2.14 1.1249,0.2548 2.5907,0.3567 4.3976,0.3057 z m -28.9721,-34.2398 c 0.01,-1.2718 0.1803,-2.185 0.5173,-2.7396 0.3371,-0.5546 0.7917,-1.021 1.364,-1.3993 l 3.1041,-2.2575 c 0.7447,-0.4958 1.4894,-0.7976 2.2341,-0.9054 0.7446,-0.1078 1.5363,-0.1509 2.3751,-0.1293 l 7.6193,0 c 0.727,-0.017 1.4835,0.041 2.2693,0.1765 0.7858,0.1352 1.4717,0.4527 2.0577,0.9524 l 3.4804,3.0101 c 0.582,0.5644 0.923,1.1993 1.023,1.9048 0.1,0.7055 0.1351,1.4815 0.1058,2.3281 l 0,5.4558 -26.1502,0 z" />
        <path
           inkscape:connector-curvature="0"
           id="path3037-5-8"
           style="font-size:45.26952362px;font-style:normal;font-variant:normal;font-weight:normal;font-stretch:normal;text-align:center;line-height:125%;letter-spacing:0px;word-spacing:0px;text-anchor:middle;fill:#000000;fill-opacity:1;stroke:none;font-family:OCR A Std;-inkscape-font-specification:OCR A Std"
           d="m 1525.7291,1065.9199 c -0.053,1.6167 0.2176,3.0395 0.8114,4.2682 0.5937,1.2287 1.8284,1.8754 3.7038,1.9401 1.8754,-0.065 3.11,-0.7114 3.7038,-1.9401 0.5938,-1.2287 0.8642,-2.6515 0.8113,-4.2682 l 0,-22.8579 12.6048,-10.4412 c 0.7819,-0.6663 1.5226,-1.1915 2.2223,-1.5756 0.6995,-0.3841 1.4638,-0.5801 2.2928,-0.5879 l 2.6338,0 c 1.1033,-0.033 2.1419,0.033 3.116,0.1999 0.9739,0.1666 1.7538,0.633 2.3398,1.3992 0.4507,0.6467 0.7251,1.2817 0.8231,1.9048 0.098,0.6232 0.1371,1.3052 0.1176,2.0459 -0.014,1.5071 0.3429,2.7966 1.07,3.8685 0.727,1.072 1.9067,1.6324 3.5392,1.6814 1.8715,-0.069 3.0904,-0.7309 3.6568,-1.9872 0.5663,-1.2561 0.8211,-2.6945 0.7643,-4.3152 0.019,-2.0498 -0.2783,-3.8997 -0.8936,-5.5499 -0.6154,-1.65 -1.6658,-3.2177 -3.1512,-4.7032 -1.221,-1.2189 -2.5653,-2.1204 -4.0331,-2.7044 -1.4678,-0.5839 -3.0709,-0.874 -4.8091,-0.8701 l -7.243,0 c -1.4091,0.031 -2.7769,0.4155 -4.1036,1.1523 -1.3267,0.7369 -2.6241,1.6384 -3.892,2.7044 l -7.0549,5.832 0,-3.6685 c 0.035,-1.5677 -0.2704,-2.9473 -0.9171,-4.1389 -0.6467,-1.1914 -1.846,-1.8185 -3.598,-1.8813 -1.9989,0.072 -3.2688,0.7741 -3.8096,2.1047 -0.5409,1.3307 -0.7761,2.8553 -0.7055,4.5739 z" />
        <path
           inkscape:connector-curvature="0"
           id="path3039-3-2"
           style="font-size:45.26952362px;font-style:normal;font-variant:normal;font-weight:normal;font-stretch:normal;text-align:center;line-height:125%;letter-spacing:0px;word-spacing:0px;text-anchor:middle;fill:#000000;fill-opacity:1;stroke:none;font-family:OCR A Std;-inkscape-font-specification:OCR A Std"
           d="m 1602.5535,1009.0104 c 0.053,-1.6167 -0.2176,-3.0395 -0.8113,-4.2683 -0.5938,-1.2286 -1.8285,-1.8753 -3.7039,-1.94 -1.8754,0.065 -3.11,0.7114 -3.7038,1.94 -0.5938,1.2288 -0.8642,2.6516 -0.8113,4.2683 l 0,56.8154 c -0.053,1.6207 0.2175,3.0591 0.8113,4.3153 0.5938,1.2561 1.8284,1.9185 3.7038,1.9871 1.752,-0.069 2.9513,-0.7074 3.598,-1.9166 0.6467,-1.2091 0.9524,-2.577 0.9172,-4.1036 l 0,-0.5644 2.0694,1.9754 c 1.2464,1.2209 2.5633,2.283 3.9508,3.1865 1.3874,0.9034 2.9865,1.3776 4.7973,1.4227 l 9.3125,0 c 1.1463,-0.022 2.3339,-0.3312 3.5627,-0.9289 1.2287,-0.5977 2.3927,-1.3541 3.4922,-2.2693 l 3.1041,-2.6339 c 1.7676,-1.4932 3.0296,-3.0218 3.7862,-4.5856 0.7563,-1.5639 1.1248,-3.5157 1.1052,-5.8556 l 0,-18.1546 c 0.019,-2.3398 -0.3489,-4.2917 -1.1052,-5.8556 -0.7566,-1.5638 -2.0186,-3.0923 -3.7862,-4.5857 l -3.1041,-2.6338 c -1.1191,-0.9563 -2.2204,-1.7245 -3.3041,-2.3046 -1.0837,-0.58 -2.2086,-0.8779 -3.3746,-0.8936 l -9.9709,0 c -1.995,0.019 -3.6255,0.4743 -4.8914,1.3639 -1.266,0.8898 -2.6142,2.097 -4.0448,3.6215 l -1.5991,1.5992 z m 0,33.4872 c 0.019,-1.3404 0.2861,-2.4221 0.7995,-3.2452 0.5135,-0.8231 1.1562,-1.5286 1.9284,-2.1165 l 5.832,-5.0795 c 0.533,-0.4782 1.1366,-0.8623 1.8108,-1.1523 0.6741,-0.29 1.3247,-0.439 1.9518,-0.4468 l 6.3024,0 c 0.4664,0 0.874,0.068 1.2229,0.1999 0.3488,0.1313 0.6623,0.3155 0.9406,0.5526 l 4.1389,3.1982 c 0.3801,0.292 0.678,0.7663 0.8936,1.4228 0.2155,0.6565 0.3253,1.4365 0.3293,2.3398 l 0,15.9911 c 0.017,0.929 -0.041,1.8461 -0.1765,2.7515 -0.1352,0.9054 -0.4527,1.5873 -0.9524,2.0459 l -3.9507,3.2923 c -0.3234,0.2822 -0.7114,0.4938 -1.1641,0.6349 -0.4527,0.1411 -1.0053,0.2117 -1.6579,0.2117 l -6.8667,0 c -0.4861,-0.035 -1.0426,-0.294 -1.6697,-0.7761 -0.6272,-0.4821 -1.2307,-0.9759 -1.8108,-1.4815 l -5.1736,-4.4211 c -1.1425,-0.9328 -1.8911,-1.8186 -2.2458,-2.6573 -0.3547,-0.8388 -0.5154,-1.9597 -0.4821,-3.3629 z" />
        <path
           inkscape:connector-curvature="0"
           id="path3041-3-8"
           style="font-size:45.26952362px;font-style:normal;font-variant:normal;font-weight:normal;font-stretch:normal;text-align:center;line-height:125%;letter-spacing:0px;word-spacing:0px;text-anchor:middle;fill:#000000;fill-opacity:1;stroke:none;font-family:OCR A Std;-inkscape-font-specification:OCR A Std"
           d="m 1687.6555,1030.4573 c 3.1728,-0.094 5.3167,0.3763 6.4318,1.4109 1.115,1.0348 1.6363,3.1983 1.5638,6.4906 l 0,2.0694 -19.3775,0 c -1.9734,-0.029 -3.8351,0.1941 -5.5851,0.6702 -1.75,0.4762 -3.4001,1.3816 -4.9502,2.7161 -1.6657,1.4659 -2.8259,2.9788 -3.4804,4.5387 -0.6545,1.5599 -0.9681,3.402 -0.9406,5.5263 l 0,3.9508 c -0.039,2.3261 0.2743,4.376 0.9406,6.1495 0.6663,1.7735 1.9205,3.4236 3.7626,4.9502 1.6148,1.3267 3.2296,2.2007 4.8444,2.622 1.6148,0.4214 3.4177,0.6134 5.4087,0.5762 l 8.6541,0 c 1.3482,0.027 2.3202,-0.027 2.916,-0.1646 0.5957,-0.1371 1.4736,-0.5213 2.6338,-1.1523 l 6.2083,-3.1982 c 0,1.2993 0.4664,2.3693 1.3875,3.21 0.921,0.8407 1.9949,1.2757 3.2217,1.3051 1.4991,-0.055 2.5927,-0.6035 3.2805,-1.6461 0.6879,-1.0426 1.0053,-2.2497 0.9525,-3.6215 l -0.9407,-30.6653 c 0.01,-2.2046 -0.243,-4.1212 -0.7525,-5.7498 -0.5096,-1.6284 -1.607,-3.2863 -3.2923,-4.9737 -1.7559,-1.7323 -3.5588,-2.8532 -5.4088,-3.3628 -1.85,-0.5095 -3.9351,-0.7368 -6.2553,-0.682 l -12.4166,0 c -1.5756,-0.053 -2.9866,0.2176 -4.233,0.8113 -1.2464,0.5939 -1.9048,1.8285 -1.9753,3.7039 0.094,1.9166 0.7995,3.163 2.1164,3.7391 1.3169,0.5762 2.6809,0.8348 4.0919,0.776 z m 2.0695,19.0011 c 2.4476,-0.041 4.1369,0.4175 5.0678,1.3758 0.9308,0.9583 1.3737,2.6632 1.3286,5.1148 l 0,1.9753 -9.9709,5.1736 -9.9709,0 c -1.1896,0.035 -2.432,-0.1999 -3.7274,-0.7055 -1.2953,-0.5056 -1.9969,-1.4932 -2.1047,-2.963 l 0,-6.0202 c 0.098,-1.605 0.7957,-2.675 2.093,-3.21 1.2973,-0.535 2.6064,-0.7819 3.9272,-0.7408 z" />
        <path
           inkscape:connector-curvature="0"
           id="path3043-3-9"
           style="font-size:45.26952362px;font-style:normal;font-variant:normal;font-weight:normal;font-stretch:normal;text-align:center;line-height:125%;letter-spacing:0px;word-spacing:0px;text-anchor:middle;fill:#000000;fill-opacity:1;stroke:none;font-family:OCR A Std;-inkscape-font-specification:OCR A Std"
           d="m 1747.2659,1030.4573 15.1445,0 c 1.411,0.059 2.7749,-0.1999 4.0919,-0.7761 1.3168,-0.5761 2.0223,-1.8225 2.1164,-3.7391 -0.071,-1.8754 -0.729,-3.11 -1.9753,-3.7038 -1.2464,-0.5937 -2.6574,-0.8642 -4.233,-0.8113 l -15.1445,0 0,-9.2184 c 0.053,-1.6167 -0.2175,-3.0394 -0.8113,-4.2682 -0.5938,-1.2287 -1.8284,-1.8754 -3.7038,-1.9401 -1.8755,0.065 -3.1101,0.7114 -3.7038,1.9401 -0.5938,1.2288 -0.8643,2.6515 -0.8114,4.2682 l 0,9.2184 -2.916,0 c -1.5756,-0.053 -2.9866,0.2176 -4.2329,0.8113 -1.2464,0.5938 -1.9049,1.8284 -1.9754,3.7038 0.094,1.9166 0.7995,3.163 2.1165,3.7391 1.3169,0.5762 2.6808,0.8349 4.0918,0.7761 l 2.916,0 0,24.551 c -0.08,2.4242 0.033,4.6543 0.341,6.6904 0.3077,2.0361 1.2915,4.0076 2.9513,5.9144 1.603,1.7108 3.3824,2.8984 5.3382,3.5627 1.9558,0.6643 4.0644,0.9818 6.3259,0.9524 l 4.6092,0 c 2.4104,0.055 4.668,-0.2195 6.7727,-0.8231 2.1047,-0.6036 3.986,-1.8656 5.644,-3.7861 0.7877,-0.9367 1.4932,-2.0969 2.1164,-3.4804 0.6231,-1.3836 0.9524,-2.7318 0.9877,-4.0448 -0.033,-1.2993 -0.4841,-2.3693 -1.3522,-3.21 -0.8682,-0.8407 -1.9538,-1.2758 -3.257,-1.3052 -1.1406,0.017 -2.1048,0.3587 -2.8925,1.023 -0.7878,0.6643 -1.3287,1.5462 -1.6226,2.6456 -0.4449,1.7696 -1.1543,2.8866 -2.1283,3.3511 -0.974,0.4644 -2.3654,0.6643 -4.1741,0.5996 l -4.6092,0 c -2.967,-0.017 -4.7464,-0.7133 -5.3382,-2.0929 -0.5919,-1.3796 -0.8192,-3.3472 -0.682,-5.9026 z" />
        <path
           inkscape:connector-curvature="0"
           id="path3045-7-0"
           style="font-size:45.26952362px;font-style:normal;font-variant:normal;font-weight:normal;font-stretch:normal;text-align:center;line-height:125%;letter-spacing:0px;word-spacing:0px;text-anchor:middle;fill:#000000;fill-opacity:1;stroke:none;font-family:OCR A Std;-inkscape-font-specification:OCR A Std"
           d="m 1823.714,1027.7294 c 0.045,-2.6083 -0.4214,-4.3289 -1.3992,-5.1619 -0.9779,-0.8328 -2.7377,-1.213 -5.2794,-1.1405 l -9.5006,0 c -1.5756,-0.053 -2.9866,0.2176 -4.233,0.8113 -1.2464,0.5938 -1.9048,1.8284 -1.9753,3.7038 0.094,1.9166 0.7995,3.163 2.1164,3.7391 1.3169,0.5762 2.6809,0.8349 4.0919,0.7761 l 7.1489,0 0,32.6406 -7.1489,0 c -1.5756,-0.053 -2.9866,0.2176 -4.233,0.8113 -1.2464,0.5938 -1.9048,1.8284 -1.9753,3.7039 0.094,1.9165 0.7995,3.1629 2.1164,3.7391 1.3169,0.5761 2.6809,0.8348 4.0919,0.776 l 22.9519,0 c 1.4109,0.059 2.7749,-0.1999 4.0919,-0.776 1.3168,-0.5762 2.0223,-1.8226 2.1164,-3.7391 -0.071,-1.8755 -0.729,-3.1101 -1.9753,-3.7039 -1.2465,-0.5937 -2.6574,-0.8642 -4.233,-0.8113 l -6.7727,0 z m -13.6395,-20.2241 c 0.024,1.5757 0.4233,2.6809 1.1994,3.3158 0.776,0.635 1.7872,0.9407 3.0336,0.9172 l 5.1736,0 c 1.2463,0.023 2.2575,-0.2822 3.0336,-0.9172 0.776,-0.6349 1.1758,-1.7401 1.1993,-3.3158 l 0,-4.327 c -0.024,-1.5755 -0.4233,-2.6808 -1.1993,-3.3158 -0.7761,-0.63487 -1.7873,-0.94057 -3.0336,-0.91713 l -5.1736,0 c -1.2464,-0.0235 -2.2576,0.28226 -3.0336,0.91713 -0.7761,0.635 -1.1759,1.7403 -1.1994,3.3158 z" />
        <path
           inkscape:connector-curvature="0"
           id="path3047-4-7"
           style="font-size:45.26952362px;font-style:normal;font-variant:normal;font-weight:normal;font-stretch:normal;text-align:center;line-height:125%;letter-spacing:0px;word-spacing:0px;text-anchor:middle;fill:#000000;fill-opacity:1;stroke:none;font-family:OCR A Std;-inkscape-font-specification:OCR A Std"
           d="m 1893.2012,1034.5021 c 0.4037,-0.4997 0.9602,-1.1229 1.6697,-1.8696 0.7094,-0.7466 1.407,-1.1581 2.093,-1.2346 1.1502,0.1 1.7891,0.6997 1.9165,1.799 0.1274,1.0994 0.1783,2.0989 0.153,2.9983 l 0.9406,29.8188 c 0,1.5716 0.3057,2.9669 0.9172,4.1859 0.6113,1.2189 1.8107,1.8617 3.5979,1.9283 1.9597,-0.082 3.2139,-0.8113 3.7627,-2.187 0.5486,-1.3757 0.7681,-2.9043 0.6584,-4.5857 l -0.9406,-31.2297 c 0.01,-1.7166 -0.08,-3.2922 -0.2705,-4.7268 -0.1901,-1.4344 -0.8211,-2.8689 -1.893,-4.3035 -0.9074,-1.1816 -2.0088,-2.087 -3.3041,-2.7161 -1.2954,-0.629 -2.7025,-0.9465 -4.2212,-0.9524 -1.8813,-0.019 -3.3393,0.2548 -4.374,0.8231 -1.0348,0.5683 -2.2106,1.5482 -3.5274,2.9395 l -0.7526,0.7525 c -1.0328,-1.4227 -2.236,-2.5279 -3.6097,-3.3158 -1.3738,-0.7877 -2.9298,-1.1875 -4.668,-1.1993 -1.4972,0.014 -2.7358,0.292 -3.7156,0.8348 -0.9799,0.5429 -2.0303,1.268 -3.1512,2.1753 l -0.7525,0.5644 c -0.2862,-1.0543 -0.7957,-1.9087 -1.5286,-2.5633 -0.7329,-0.6545 -1.6657,-0.9916 -2.7984,-1.0112 -1.8833,0.067 -3.1493,0.733 -3.7979,1.9989 -0.6487,1.266 -0.9505,2.7318 -0.9054,4.3975 l 0,38.0965 c -0.053,1.6167 0.2175,3.0395 0.8113,4.2682 0.5938,1.2287 1.8284,1.8754 3.7039,1.9401 1.8754,-0.065 3.11,-0.7114 3.7038,-1.9401 0.5937,-1.2287 0.8642,-2.6515 0.8113,-4.2682 l 0,-29.3484 3.9507,-3.6685 c 0.3665,-0.3508 0.7388,-0.6839 1.1171,-0.9995 0.3782,-0.3155 0.821,-0.484 1.3286,-0.5056 1.119,0.086 1.7735,0.6193 1.9637,1.5991 0.1901,0.9799 0.2566,1.8892 0.1999,2.7279 l 0,30.195 c -0.053,1.6167 0.2174,3.0395 0.8113,4.2682 0.5937,1.2287 1.8283,1.8754 3.7038,1.9401 1.8754,-0.065 3.11,-0.7114 3.7038,-1.9401 0.5938,-1.2287 0.8642,-2.6515 0.8113,-4.2682 l 0,-29.3484 z" />
      </g>
      <g
         transform="matrix(2.0779221,0,0,2.0779221,804.79852,744.55809)"
         id="g4720"
         style="font-size:45.26952362px;font-style:normal;font-variant:normal;font-weight:normal;font-stretch:normal;text-align:center;line-height:125%;letter-spacing:0px;word-spacing:0px;text-anchor:middle;fill:#000000;fill-opacity:1;stroke:none;font-family:Zephyrean BRK;-inkscape-font-specification:Zephyrean BRK">
        <path
           inkscape:connector-curvature="0"
           id="path3049-3-8"
           style="font-family:OCR A Std;-inkscape-font-specification:OCR A Std"
           d="m 597.85534,137.58771 c 0.58093,-0.0122 1.08266,0.0349 1.5052,0.14147 0.42248,0.10659 0.81104,0.34613 1.16567,0.71864 0.26405,0.29521 0.53943,0.51967 0.82616,0.67338 0.28668,0.15374 0.62997,0.23107 1.02987,0.232 0.60733,-0.0141 1.12415,-0.2235 1.55046,-0.62811 0.42625,-0.40457 0.64883,-0.9195 0.66772,-1.5448 -0.0208,-0.59413 -0.20563,-1.06946 -0.55455,-1.42597 -0.34897,-0.35647 -0.73753,-0.69599 -1.16567,-1.01855 -0.77243,-0.65638 -1.51371,-1.07512 -2.22384,-1.25622 -0.71018,-0.18105 -1.64385,-0.26027 -2.80102,-0.23766 l -7.4241,0 c -1.67496,0.0151 -3.0783,0.50553 -4.21001,1.47124 -1.13173,0.96576 -1.72023,2.31628 -1.76549,4.05157 0.008,1.38072 0.34234,2.47849 1.00157,3.29332 0.65922,0.81485 1.59289,1.48257 2.80102,2.00315 l 10.23078,4.6627 c 0.53,0.22352 1.03173,0.51211 1.50519,0.86577 0.47342,0.35367 0.72617,0.78938 0.75826,1.30714 -0.0547,1.20906 -0.46592,1.92582 -1.23358,2.15027 -0.76771,0.22447 -1.56369,0.30746 -2.38794,0.24898 l -5.88496,0 c -0.69131,0.0142 -1.34582,-0.0368 -1.96354,-0.15278 -0.61775,-0.116 -1.12513,-0.38195 -1.52217,-0.79786 -0.24522,-0.26973 -0.50174,-0.46589 -0.76957,-0.5885 -0.26785,-0.1226 -0.56964,-0.18296 -0.90538,-0.18108 -0.62906,0.0142 -1.15908,0.22353 -1.59007,0.62811 -0.43101,0.4046 -0.65547,0.91953 -0.67338,1.5448 0.0321,0.54135 0.26218,1.02044 0.69035,1.43729 0.42817,0.41686 0.86199,0.78278 1.30149,1.09777 0.79785,0.61113 1.62401,0.99592 2.47847,1.15436 0.85444,0.15844 1.83904,0.22635 2.9538,0.20371 l 6.6998,0 c 2.12007,0.005 3.83275,-0.52531 5.13803,-1.59007 1.30522,-1.06476 1.97671,-2.69256 2.01446,-4.88339 -0.002,-1.54385 -0.36029,-2.80195 -1.07513,-3.7743 -0.7149,-0.97232 -1.77495,-1.76642 -3.18015,-2.38227 l -10.86454,-4.93432 c -0.32633,-0.12636 -0.60171,-0.28103 -0.82616,-0.46401 -0.22447,-0.18294 -0.34142,-0.45078 -0.35083,-0.80352 0.0453,-0.66487 0.3395,-1.04399 0.88274,-1.13738 0.54321,-0.0934 1.06381,-0.12164 1.56178,-0.0849 z" />
        <path
           inkscape:connector-curvature="0"
           id="path3051-8-1"
           style="font-family:OCR A Std;-inkscape-font-specification:OCR A Std"
           d="m 634.73651,157.64185 c 0.67901,0.0283 1.33541,-0.0962 1.9692,-0.37347 0.63374,-0.27727 0.97326,-0.87708 1.01855,-1.79944 -0.034,-0.90254 -0.35086,-1.4967 -0.95064,-1.78246 -0.59984,-0.28576 -1.27888,-0.41591 -2.03711,-0.39045 l -9.3254,0 c -0.71771,0.006 -1.3081,-0.0509 -1.77115,-0.16976 -0.46307,-0.11882 -0.83843,-0.33385 -1.12606,-0.64508 l -1.08646,-1.17699 c -0.16505,-0.16598 -0.31029,-0.36592 -0.43571,-0.59982 -0.12544,-0.23388 -0.19146,-0.45645 -0.19805,-0.66771 l 0,-1.44861 13.94283,0 c 1.25336,0.0217 2.07386,-0.20275 2.4615,-0.67337 0.38759,-0.4706 0.56301,-1.31751 0.52625,-2.54072 l 0,-3.48571 c 0.0302,-1.18641 -0.0981,-2.23136 -0.38478,-3.13487 -0.28673,-0.90348 -0.91295,-1.74472 -1.87866,-2.52375 l -1.76549,-1.40333 c -0.79978,-0.66015 -1.54294,-1.09398 -2.2295,-1.30149 -0.6866,-0.20746 -1.54293,-0.30177 -2.56901,-0.28293 l -3.98367,0 c -0.84503,-0.0349 -1.61083,0.0462 -2.2974,0.24332 -0.68659,0.19713 -1.52029,0.71961 -2.50111,1.56744 l -1.53914,1.3128 c -0.88086,0.74601 -1.46181,1.51747 -1.74285,2.31437 -0.28106,0.79694 -0.40932,1.76079 -0.38479,2.89156 l 0,8.37475 c -0.0151,1.13739 0.13957,2.05409 0.46401,2.75009 0.32442,0.69601 0.90914,1.409 1.75417,2.13896 l 1.85603,1.62968 c 0.64318,0.56397 1.23545,0.90726 1.7768,1.02987 0.54133,0.1226 1.24677,0.17164 2.11632,0.14712 z m -13.94283,-16.47789 c 0.004,-0.61206 0.0867,-1.05155 0.24898,-1.31846 0.1622,-0.26688 0.381,-0.49134 0.6564,-0.67338 l 1.49387,-1.08645 c 0.35837,-0.23859 0.71675,-0.38382 1.07514,-0.43572 0.35837,-0.0519 0.73938,-0.0726 1.14304,-0.0622 l 3.66679,0 c 0.34987,-0.008 0.71391,0.0198 1.09211,0.0849 0.37816,0.0651 0.70825,0.21788 0.99026,0.45835 l 1.67495,1.4486 c 0.28008,0.27164 0.44418,0.5772 0.4923,0.9167 0.0481,0.33953 0.065,0.713 0.0509,1.12041 l 0,2.62559 -12.58476,0 z" />
        <path
           inkscape:connector-curvature="0"
           id="path3053-0-5"
           style="font-family:OCR A Std;-inkscape-font-specification:OCR A Std"
           d="m 661.74905,137.58771 c 1.52687,-0.0452 2.55862,0.1811 3.09527,0.67903 0.5366,0.49798 0.78746,1.53917 0.75259,3.12356 l 0,0.99592 -9.3254,0 c -0.94972,-0.0141 -1.84566,0.0934 -2.68784,0.32254 -0.8422,0.22919 -1.6363,0.6649 -2.38228,1.30714 -0.80164,0.70545 -1.35996,1.43353 -1.67495,2.18423 -0.315,0.75072 -0.4659,1.63723 -0.45269,2.65955 l 0,1.90129 c -0.0189,1.11947 0.13203,2.10596 0.45269,2.95946 0.32065,0.85351 0.92423,1.6476 1.81076,2.38228 0.7771,0.63848 1.55422,1.0591 2.33135,1.26187 0.7771,0.20277 1.64476,0.29519 2.60296,0.27727 l 4.16474,0 c 0.64884,0.0132 1.11662,-0.0132 1.40334,-0.0792 0.28669,-0.066 0.7092,-0.25086 1.26753,-0.55454 l 2.98775,-1.53915 c 0.002,0.62528 0.22444,1.14021 0.66772,1.5448 0.44323,0.4046 0.96005,0.61396 1.55046,0.62811 0.72145,-0.0264 1.2477,-0.29047 1.57875,-0.79221 0.33101,-0.50173 0.48379,-1.08268 0.45835,-1.74285 l -0.45269,-14.75767 c 0.004,-1.06098 -0.11697,-1.98333 -0.36215,-2.76707 -0.24523,-0.7837 -0.77337,-1.58156 -1.58441,-2.39359 -0.84505,-0.83368 -1.7127,-1.37314 -2.60297,-1.61837 -0.89031,-0.24518 -1.89377,-0.35458 -3.01038,-0.3282 l -5.9755,0 c -0.75827,-0.0254 -1.4373,0.10471 -2.0371,0.39045 -0.59983,0.28578 -0.91671,0.87994 -0.95065,1.78246 0.0453,0.92238 0.38477,1.52219 1.01855,1.79944 0.63375,0.27729 1.29015,0.40178 1.9692,0.37347 z m 0.99592,9.14433 c 1.17791,-0.0198 1.99087,0.20089 2.43886,0.66206 0.44796,0.46118 0.6611,1.28168 0.63943,2.46149 l 0,0.95065 -4.79851,2.48979 -4.79851,0 c -0.57247,0.017 -1.1704,-0.0962 -1.79378,-0.33951 -0.6234,-0.24332 -0.96103,-0.71864 -1.01289,-1.42598 l 0,-2.89721 c 0.0471,-0.77239 0.38289,-1.28732 1.00723,-1.5448 0.62432,-0.25746 1.25432,-0.37629 1.88998,-0.35649 z" />
        <path
           inkscape:connector-curvature="0"
           id="path3055-8-8"
           style="font-family:OCR A Std;-inkscape-font-specification:OCR A Std"
           d="m 681.69964,154.6541 c -0.0255,0.77806 0.10468,1.46275 0.39045,2.05408 0.28575,0.59132 0.87991,0.90255 1.78246,0.93367 0.90254,-0.0311 1.4967,-0.34234 1.78246,-0.93367 0.28575,-0.59133 0.4159,-1.27602 0.39045,-2.05408 l 0,-11.00035 6.06604,-5.02485 c 0.37628,-0.32064 0.73277,-0.57339 1.06948,-0.75826 0.33667,-0.18483 0.70448,-0.27914 1.10343,-0.28293 l 1.26753,0 c 0.53095,-0.016 1.03079,0.0161 1.49953,0.0962 0.4687,0.0802 0.84406,0.30464 1.12607,0.67337 0.21689,0.31125 0.34892,0.61681 0.3961,0.9167 0.0471,0.29992 0.066,0.62812 0.0566,0.9846 -0.007,0.72526 0.16502,1.34582 0.51493,1.86168 0.34987,0.51589 0.91761,0.78562 1.70324,0.80919 0.90064,-0.033 1.48725,-0.35177 1.75983,-0.95631 0.27253,-0.60451 0.39514,-1.29675 0.36781,-2.07671 0.009,-0.98647 -0.13394,-1.87676 -0.43005,-2.67087 -0.29616,-0.79407 -0.80167,-1.54855 -1.51651,-2.26345 -0.58758,-0.58658 -1.23455,-1.02041 -1.94091,-1.30148 -0.7064,-0.28102 -1.47786,-0.4206 -2.31437,-0.41874 l -3.48571,0 c -0.67811,0.0151 -1.33639,0.19996 -1.97486,0.55455 -0.63849,0.35463 -1.26283,0.78845 -1.873,1.30148 l -3.39517,2.80667 0,-1.76549 c 0.017,-0.75446 -0.13016,-1.4184 -0.44137,-1.99183 -0.31123,-0.57338 -0.88841,-0.87517 -1.73154,-0.90538 -0.96197,0.0349 -1.5731,0.37255 -1.83339,1.01289 -0.2603,0.64039 -0.37348,1.37413 -0.33952,2.20121 z" />
        <path
           inkscape:connector-curvature="0"
           id="path3057-8-6"
           style="font-family:OCR A Std;-inkscape-font-specification:OCR A Std"
           d="m 714.32553,147.54688 c -0.0226,1.29866 0.14712,2.36814 0.50927,3.20843 0.36215,0.84031 1.0525,1.67213 2.07106,2.49545 l 3.21409,2.67087 c 0.96667,0.80447 1.83998,1.30054 2.61994,1.48822 0.77993,0.18767 1.77773,0.26501 2.99341,0.232 l 6.88088,0 c 0.75823,0.0255 1.43726,-0.10468 2.0371,-0.39044 0.59979,-0.28576 0.91667,-0.87992 0.95065,-1.78247 -0.0453,-0.92235 -0.38481,-1.52216 -1.01855,-1.79944 -0.63379,-0.27727 -1.29019,-0.40176 -1.9692,-0.37347 l -7.65045,0 c -0.43196,-0.006 -0.85824,-0.10751 -1.27885,-0.30556 -0.42064,-0.19805 -0.82429,-0.45835 -1.21094,-0.78089 l -2.6256,-2.21818 c -0.34613,-0.26123 -0.62718,-0.53096 -0.84314,-0.80918 -0.21598,-0.27821 -0.32726,-0.62716 -0.33385,-1.04685 l 0,-5.387 c 0.007,-0.41967 0.11787,-0.76861 0.33385,-1.04684 0.21596,-0.2782 0.49701,-0.54793 0.84314,-0.80919 l 2.6256,-2.21817 c 0.38665,-0.32253 0.7903,-0.58282 1.21094,-0.7809 0.42061,-0.19803 0.84689,-0.29988 1.27885,-0.30556 l 7.65045,0 c 0.67901,0.0283 1.33541,-0.0962 1.9692,-0.37347 0.63374,-0.27725 0.97325,-0.87706 1.01855,-1.79944 -0.034,-0.90253 -0.35086,-1.49668 -0.95065,-1.78246 -0.59984,-0.28574 -1.27887,-0.41589 -2.0371,-0.39045 l -6.88088,0 c -1.21568,-0.033 -2.21348,0.0443 -2.99341,0.23201 -0.77996,0.1877 -1.65327,0.68377 -2.61994,1.48821 l -3.21409,2.67087 c -1.01856,0.82335 -1.70891,1.65516 -2.07106,2.49545 -0.36216,0.84032 -0.53191,1.9098 -0.50927,3.20844 z" />
        <path
           inkscape:connector-curvature="0"
           id="path3059-0-1"
           style="font-family:OCR A Std;-inkscape-font-specification:OCR A Std"
           d="m 761.07532,137.58771 c 1.16377,0.0245 1.85789,0.38292 2.08237,1.07514 0.22444,0.69225 0.33007,1.57123 0.31689,2.63691 l 0.45268,13.39961 c -2e-5,0.75637 0.14711,1.42786 0.44138,2.01447 0.29422,0.58661 0.8714,0.89595 1.73153,0.92801 0.94308,-0.0396 1.54667,-0.39044 1.81076,-1.0525 0.26404,-0.66206 0.36967,-1.39768 0.31688,-2.20686 l -0.45269,-13.67122 c 9.2e-4,-1.17038 -0.0915,-2.23608 -0.27727,-3.19712 -0.18582,-0.961 -0.74225,-1.85695 -1.66929,-2.68784 -0.91389,-0.75918 -1.73439,-1.2213 -2.4615,-1.38637 -0.72715,-0.16502 -1.30999,-0.23103 -1.74851,-0.19805 l -2.89721,0 c -0.72527,0.0151 -1.41373,0.16601 -2.0654,0.45269 -0.6517,0.28673 -1.26094,0.6187 -1.82773,0.99592 l -3.53098,2.30871 0,-9.73282 c 0.0254,-0.77803 -0.10469,-1.46272 -0.39044,-2.05408 -0.28577,-0.59129 -0.87993,-0.90251 -1.78247,-0.93367 -0.90256,0.0312 -1.49671,0.34238 -1.78246,0.93367 -0.28577,0.59136 -0.41592,1.27605 -0.39045,2.05408 l 0,27.38771 c -0.0255,0.77806 0.10468,1.46275 0.39045,2.05408 0.28575,0.59132 0.87991,0.90255 1.78246,0.93367 0.90254,-0.0311 1.4967,-0.34234 1.78246,-0.93367 0.28575,-0.59133 0.4159,-1.27602 0.39045,-2.05408 l 0,-12.63003 6.42819,-4.02894 c 0.45267,-0.27159 0.90536,-0.4074 1.35807,-0.40742 z" />
      </g>
    </g>
    <text
       xml:space="preserve"
       style="font-size:131.67494202000000000px;font-style:normal;font-weight:normal;line-height:125%;letter-spacing:0px;word-spacing:0px;fill:#6900b2;fill-opacity:1;stroke:none;font-family:Sans"
       x="960.14026"
       y="1358.4487"
       id="text4627"
       sodipodi:linespacing="125%"><tspan
         sodipodi:role="line"
         id="tspan4629"
         x="960.14026"
         y="1358.4487"
         style="font-size:79.00496674000000000px;font-style:normal;font-variant:normal;font-weight:normal;font-stretch:normal;text-align:start;line-height:125%;writing-mode:lr-tb;text-anchor:start;font-family:Segoe Print;-inkscape-font-specification:Segoe Print;fill:#6900b2;fill-opacity:1">Bring the old google back !</tspan></text>
    <text
       xml:space="preserve"
       style="font-size:99.77198029px;font-style:normal;font-weight:normal;line-height:125%;letter-spacing:0px;word-spacing:0px;fill:#6900b2;fill-opacity:1;stroke:none;font-family:Sans"
       x="864.07825"
       y="503.23874"
       id="text4627-2"
       sodipodi:linespacing="125%"><tspan
         sodipodi:role="line"
         id="tspan4629-4"
         x="864.07825"
         y="503.23874"
         style="font-size:59.8631897px;font-style:normal;font-variant:normal;font-weight:normal;font-stretch:normal;text-align:start;line-height:125%;writing-mode:lr-tb;text-anchor:start;fill:#6900b2;fill-opacity:1;font-family:Segoe Print;-inkscape-font-specification:Segoe Print">Bring the old google back !</tspan></text>
    <text
       xml:space="preserve"
       style="font-size:48.93596649px;font-style:normal;font-weight:normal;line-height:125%;letter-spacing:0px;word-spacing:0px;fill:#6900b2;fill-opacity:1;stroke:none;font-family:Sans"
       x="128.18765"
       y="265.39078"
       id="text4627-2-2"
       sodipodi:linespacing="125%"><tspan
         sodipodi:role="line"
         id="tspan4629-4-5"
         x="128.18765"
         y="265.39078"
         style="font-size:29.3615818px;font-style:normal;font-variant:normal;font-weight:normal;font-stretch:normal;text-align:start;line-height:125%;writing-mode:lr-tb;text-anchor:start;fill:#6900b2;fill-opacity:1;font-family:Segoe Print;-inkscape-font-specification:Segoe Print">Bring the old google back !</tspan></text>
  </g>
</svg>
